<?xml version="1.0" standalone="no"?>
<!DOCTYPE svg PUBLIC "-//W3C//DTD SVG 20010904//EN"
 "http://www.w3.org/TR/2001/REC-SVG-20010904/DTD/svg10.dtd">
<svg version="1.0" xmlns="http://www.w3.org/2000/svg"
 width="800.000000pt" height="800.000000pt" viewBox="0 0 800.000000 800.000000"
 preserveAspectRatio="xMidYMid meet">
<metadata>
Created by potrace 1.11, written by Peter Selinger 2001-2013
</metadata>
<g transform="translate(0.000000,800.000000) scale(0.100000,-0.100000)"
fill="#000000" stroke="none">
<path d="M1580 7620 c-94 -20 -166 -46 -243 -89 -29 -16 -340 -202 -692 -414
l-640 -384 -2 -2059 c-2 -1809 -1 -2067 13 -2124 41 -176 121 -318 248 -438
63 -60 125 -100 266 -174 126 -66 248 -131 475 -250 94 -50 222 -117 285 -151
167 -87 295 -155 375 -197 39 -20 124 -65 190 -100 66 -35 152 -80 190 -100
39 -21 124 -65 190 -100 66 -34 152 -79 190 -100 39 -20 118 -63 178 -94 159
-83 312 -163 404 -212 46 -24 131 -69 190 -100 60 -31 140 -73 178 -94 69 -37
169 -89 400 -210 66 -34 143 -76 172 -91 29 -16 59 -29 67 -29 8 0 186 104
396 230 210 127 385 230 390 230 5 0 10 3 12 8 2 4 204 128 451 276 l447 269
-1 941 c0 728 -3 956 -13 1006 -29 143 -81 258 -167 365 -99 126 -162 171
-424 305 -99 51 -261 134 -360 185 -219 113 -574 295 -673 345 l-73 37 -70
-43 c-39 -24 -72 -44 -73 -44 -1 0 -110 -65 -241 -144 -132 -79 -381 -229
-554 -333 -172 -103 -329 -198 -350 -210 -20 -13 -43 -26 -51 -30 -8 -3 -17
-9 -20 -12 -3 -4 -21 -15 -42 -25 -92 -49 -93 -46 34 -111 62 -32 118 -61 123
-65 6 -4 62 -34 125 -67 63 -33 171 -90 240 -126 69 -36 145 -76 170 -89 25
-13 47 -25 50 -28 3 -3 37 -21 75 -40 39 -19 108 -55 155 -80 47 -26 144 -77
215 -115 181 -95 219 -116 225 -126 3 -4 5 -108 5 -231 -1 -182 -4 -222 -15
-220 -17 4 -68 29 -162 80 -74 40 -136 73 -305 163 -40 22 -108 58 -150 80
-43 23 -112 60 -153 82 -41 22 -109 58 -150 80 -257 137 -356 190 -465 247
-55 29 -122 65 -150 80 -27 15 -86 46 -130 70 -224 121 -349 252 -429 454 -61
151 -59 116 -60 1238 l-1 1027 190 -98 c104 -54 246 -128 315 -163 69 -36 197
-103 285 -148 88 -46 210 -109 270 -140 61 -31 187 -97 280 -145 94 -48 215
-111 270 -140 55 -29 195 -101 310 -160 116 -59 216 -112 223 -118 8 -6 16 -6
25 0 6 6 102 56 212 113 229 118 414 213 565 292 58 31 186 97 285 148 172 88
319 165 560 290 61 31 187 97 280 145 94 49 186 97 205 107 19 10 37 18 40 18
3 0 5 -543 4 -1207 0 -689 4 -1213 9 -1220 5 -6 41 -28 80 -49 73 -37 161 -84
252 -134 64 -35 157 -85 270 -145 50 -26 117 -62 150 -80 33 -18 94 -50 135
-72 41 -22 138 -74 215 -115 237 -128 277 -149 365 -195 47 -25 108 -58 135
-73 28 -15 89 -48 138 -74 l87 -47 -2 2187 -3 2187 -655 394 c-588 354 -766
456 -819 468 -9 2 -43 12 -76 21 -41 12 -100 17 -185 17 -197 1 -281 -26 -575
-188 -79 -43 -164 -90 -240 -130 -38 -20 -92 -50 -120 -65 -72 -39 -171 -93
-240 -130 -33 -18 -91 -49 -130 -70 -38 -21 -99 -53 -135 -72 -36 -19 -85 -46
-110 -60 -25 -14 -81 -44 -125 -68 -44 -24 -105 -56 -135 -73 -30 -16 -75 -41
-100 -54 -25 -13 -90 -48 -145 -79 -55 -30 -119 -64 -142 -75 -23 -11 -45 -24
-48 -30 -6 -8 -49 12 -230 111 -27 15 -81 44 -120 65 -38 21 -92 50 -120 65
-27 15 -86 47 -130 70 -98 53 -174 94 -240 130 -49 27 -123 67 -240 130 -147
79 -214 115 -262 141 -29 16 -77 42 -105 58 -29 15 -89 47 -133 71 -44 24
-100 54 -125 68 -285 156 -359 182 -550 187 -61 1 -126 -4 -180 -15z"/>
</g>
</svg>
