<svg id="Backgrounds" xmlns="http://www.w3.org/2000/svg" viewBox="0 0 640 800"><defs><style>.cls-1{fill:#30787f;}.cls-2{fill:#282525;}.cls-3{fill:#efddd0;}</style></defs><title>1</title><rect id="Logo_1" data-name="Logo 1" class="cls-1" width="640" height="800"/><circle id="Background" class="cls-2" cx="320" cy="331.02" r="168.67"/><g id="Comet_White"><path class="cls-3" d="M395,342.47l-0.6-.53-0.14-.14-83.43-76.3a5.73,5.73,0,1,0-7.74,8.46l8.26,7.55a5.73,5.73,0,0,1,.36,8.1h0a5.73,5.73,0,0,1-8.1.36l-50.55-46.23a5.73,5.73,0,1,0-7.74,8.46l15,13.7a5.73,5.73,0,0,1,.36,8.1h0a5.73,5.73,0,0,1-8.1.36l-5-4.58a5.73,5.73,0,1,0-7.74,8.46l30,27.39a5.73,5.73,0,0,1,.36,8.1h0a5.73,5.73,0,0,1-8.1.36L245.53,299a5.78,5.78,0,0,0-8.14.38,5.72,5.72,0,0,0,.4,8.08l100.73,92.13q1.07,1.15,2.25,2.22A40.19,40.19,0,1,0,395,342.47Z"/><polygon class="cls-3" points="239.43 270.16 239.44 270.15 239.46 270.14 239.43 270.16"/><polygon class="cls-3" points="244.95 244.11 244.96 244.1 244.96 244.1 244.95 244.11"/><path class="cls-3" d="M237.37,299.37h0Z"/><polygon class="cls-3" points="302.72 265.86 302.73 265.86 302.74 265.85 302.72 265.86"/><circle class="cls-3" cx="366.51" cy="370.88" r="53.8" transform="translate(-154.52 391.04) rotate(-47.56)"/><rect class="cls-3" x="206.28" y="248.5" width="31.34" height="11.5" rx="5.63" ry="5.63" transform="translate(229.75 -83.16) rotate(42.44)"/></g><g id="Comet_Green"><path class="cls-1" d="M384.68,348.54l-0.92-.82-44.33-40.54a5.85,5.85,0,0,0-8.2.31l0,0a5.81,5.81,0,0,0,.45,8.17l6,5.48a5.73,5.73,0,0,1,.36,8.1h0a5.73,5.73,0,0,1-8.1.36l-28.48-26a5.69,5.69,0,0,0-8.07.45l0,0a5.64,5.64,0,0,0,.31,8l21.1,19.3a5.73,5.73,0,0,1,.36,8.1h0a5.73,5.73,0,0,1-8.1.36L302,335.05a5.84,5.84,0,0,0-8.2.35l0,0a5.77,5.77,0,0,0,.44,8.14l50.39,46.08c0.13,0.12.23,0.27,0.36,0.38,0.32,0.32.62,0.65,1,1A28.72,28.72,0,1,0,384.68,348.54Z"/><rect class="cls-1" x="269.7" y="285.53" width="19.57" height="11.5" rx="5.63" ry="5.63" transform="translate(269.82 -112.28) rotate(42.44)"/><circle class="cls-1" cx="366.51" cy="370.88" r="36.29" transform="translate(-154.52 391.04) rotate(-47.56)"/></g><g id="Stars"><ellipse class="cls-3" cx="366.51" cy="228.07" rx="4.29" ry="21.11"/><ellipse class="cls-3" cx="366.51" cy="228.07" rx="21.11" ry="4.29"/><ellipse class="cls-3" cx="221.96" cy="382.25" rx="3.29" ry="16.2"/><ellipse class="cls-3" cx="221.96" cy="382.25" rx="16.2" ry="3.29"/><circle class="cls-3" cx="336.27" cy="206.31" r="3.63"/><ellipse class="cls-3" cx="282.27" cy="207.67" rx="2.27" ry="11.17"/><ellipse class="cls-3" cx="282.27" cy="207.67" rx="11.17" ry="2.27"/><ellipse class="cls-3" cx="265.71" cy="404.55" rx="1.86" ry="9.15"/><ellipse class="cls-3" cx="265.71" cy="404.55" rx="9.15" ry="1.86"/><circle class="cls-3" cx="282.56" cy="446.61" r="3.63"/><circle class="cls-3" cx="428.93" cy="297.44" r="4.63"/><circle class="cls-3" cx="320" cy="455.51" r="3.81"/></g><g id="Text_Logo1"><g id="Text"><path class="cls-2" d="M145.92,577.25H128.86v-11.4q0-5-.55-6.21a2.35,2.35,0,0,0-2.41-1.23,2.52,2.52,0,0,0-2.67,1.5q-0.57,1.5-.57,6.48v30.48q0,4.78.57,6.24a2.43,2.43,0,0,0,2.55,1.46,2.4,2.4,0,0,0,2.49-1.46q0.59-1.46.59-6.87V588h17.06v2.56q0,10.19-1.44,14.45t-6.36,7.47A21.79,21.79,0,0,1,126,615.67q-7.5,0-12.36-2.72a13.2,13.2,0,0,1-6.44-7.52q-1.58-4.8-1.58-14.45V571.82a85.26,85.26,0,0,1,.49-10.64,14.89,14.89,0,0,1,2.9-6.83,16.15,16.15,0,0,1,6.69-5.17,24.16,24.16,0,0,1,9.83-1.88q7.54,0,12.44,2.92a14,14,0,0,1,6.44,7.26q1.54,4.35,1.54,13.54v6.23Z"/><path class="cls-2" d="M181.24,548.68L191,614.29H173.57l-0.92-11.79h-6.1l-1,11.79H147.88l8.7-65.61h24.66Zm-9,42.19q-1.3-11.15-2.6-27.56-2.61,18.85-3.27,27.56h5.87Z"/><path class="cls-2" d="M246.73,548.68v65.61H231.82l0-44.3-5.94,44.3H215.28L209,571l0,43.28H194.08V548.68h22.08q1,5.92,2,13.95l2.42,16.69,3.92-30.64h22.2Z"/><path class="cls-2" d="M253.64,548.68h17.18a40.35,40.35,0,0,1,10.72,1.09,12,12,0,0,1,5.63,3.16,10.86,10.86,0,0,1,2.55,5,44.87,44.87,0,0,1,.67,9.1v5.71q0,6.28-1.3,9.16a8.88,8.88,0,0,1-4.76,4.42,22.51,22.51,0,0,1-9.06,1.54H270.7v26.42H253.64V548.68ZM270.7,559.9v16.7q0.73,0,1.26,0a4,4,0,0,0,3.26-1.15q0.91-1.16.91-4.8v-5.39q0-3.36-1.05-4.38T270.7,559.9Z"/><path class="cls-3" d="M335.14,577.25H318.08v-11.4q0-5-.55-6.21a2.35,2.35,0,0,0-2.41-1.23,2.52,2.52,0,0,0-2.67,1.5q-0.57,1.5-.57,6.48v30.48q0,4.78.57,6.24a2.43,2.43,0,0,0,2.55,1.46,2.4,2.4,0,0,0,2.49-1.46q0.59-1.46.59-6.87V588h17.06v2.56q0,10.19-1.44,14.45t-6.36,7.47a21.79,21.79,0,0,1-12.14,3.21q-7.5,0-12.36-2.72a13.2,13.2,0,0,1-6.44-7.52q-1.58-4.8-1.58-14.45V571.82a85.26,85.26,0,0,1,.49-10.64,14.89,14.89,0,0,1,2.9-6.83,16.15,16.15,0,0,1,6.69-5.17,24.16,24.16,0,0,1,9.83-1.88q7.54,0,12.44,2.92a14,14,0,0,1,6.44,7.26q1.54,4.35,1.54,13.54v6.23Z"/><path class="cls-3" d="M341.31,548.68h12.08q12.08,0,16.35.93a11.26,11.26,0,0,1,7,4.76q2.7,3.83,2.7,12.22,0,7.66-1.9,10.29T370,580q5.07,1.26,6.81,3.36a10.05,10.05,0,0,1,2.17,3.87q0.43,1.76.43,9.71v17.3H363.56v-21.8q0-5.27-.83-6.52t-4.36-1.26v29.58H341.31V548.68Zm17.06,11.23v14.59a7.52,7.52,0,0,0,4-.79q1.15-.79,1.15-5.13V565q0-3.12-1.11-4.09T358.37,559.9Z"/><path class="cls-3" d="M415.68,548.68l9.76,65.61H408l-0.92-11.79H401l-1,11.79H382.32l8.7-65.61h24.66Zm-9,42.19q-1.3-11.15-2.6-27.56-2.61,18.85-3.27,27.56h5.87Z"/><path class="cls-3" d="M458,548.68v13.13H447.87v52.48H430.81V561.81H420.72V548.68H458Z"/><path class="cls-3" d="M461.64,548.68h28.45v13.13H478.7v12.44h10.66v12.48H478.7v14.43h12.52v13.13H461.64V548.68Z"/><path class="cls-3" d="M496.31,548.68h12.08q12.08,0,16.35.93a11.26,11.26,0,0,1,7,4.76q2.7,3.83,2.7,12.22,0,7.66-1.9,10.29T525,580q5.07,1.26,6.81,3.36a10.05,10.05,0,0,1,2.17,3.87q0.43,1.76.43,9.71v17.3H518.56v-21.8q0-5.27-.83-6.52t-4.36-1.26v29.58H496.31V548.68Zm17.06,11.23v14.59a7.52,7.52,0,0,0,4-.79q1.15-.79,1.15-5.13V565q0-3.12-1.11-4.09T513.37,559.9Z"/></g></g></svg>