<svg id="Backgrounds" xmlns="http://www.w3.org/2000/svg" xmlns:xlink="http://www.w3.org/1999/xlink" viewBox="0 0 640 800"><defs><style>.cls-1{fill:#d64c21;}.cls-2{font-size:120px;fill:#5bc17f;font-family:NTF-Grand;}.cls-3{fill:none;stroke-linecap:round;stroke-miterlimit:10;stroke-width:10px;stroke:url(#linear-gradient);}</style><linearGradient id="linear-gradient" x1="72.67" y1="217.09" x2="459.32" y2="440.32" gradientUnits="userSpaceOnUse"><stop offset="0" stop-color="#0090bc"/><stop offset="0.18" stop-color="#0b97c6"/><stop offset="0.5" stop-color="#28aae1"/><stop offset="0.51" stop-color="#29abe2"/><stop offset="0.51" stop-color="#2aabe1"/><stop offset="0.69" stop-color="#54b79c"/><stop offset="0.83" stop-color="#72bf6a"/><stop offset="0.94" stop-color="#85c44b"/><stop offset="1" stop-color="#8cc63f"/></linearGradient></defs><title>3</title><rect id="Logo_3" data-name="Logo 3" class="cls-1" width="640" height="800"/><text class="cls-2" transform="translate(136.71 615.81)">campc<tspan x="230.03" y="0">r</tspan><tspan x="257.88" y="0">a</tspan><tspan x="298.55" y="0">t</tspan><tspan x="323.99" y="0">er</tspan></text><path class="cls-3" d="M301.33,336.35A79.75,79.75,0,1,1,312,448.62,79.75,79.75,0,0,1,301.33,336.35ZM275.9,451.82c8.74,7.5,12.73,10.51,22,17.26,46.25,33.82,109.56,29.26,146.06-14.91S472.05,346,430,307.08c-7.91-7.32-16.35-13.9-23.86-20.24m-258.47-.28S266.1,413.59,312,448.62m101.66-123c-43-38.48-190.12-130.83-190.12-130.83m105.3,233.49a53.32,53.32,0,0,0,75.07-7.14m-71.18-65.45-69.09-57.1M106.24,168.94L236.68,277"/></svg>