<svg id="Backgrounds" xmlns="http://www.w3.org/2000/svg" viewBox="0 0 640 800"><defs><style>.cls-1{fill:#a3a3a3;}.cls-2,.cls-3{font-size:96px;font-family:NTF-Grand;}.cls-2{fill:#ff6724;}.cls-3,.cls-7{fill:#fff;}.cls-4{letter-spacing:-2px;}.cls-5,.cls-6,.cls-8{fill:none;}.cls-5{stroke:#ff6700;stroke-width:10px;}.cls-5,.cls-8{stroke-miterlimit:10;}.cls-6,.cls-8{stroke:#fff;stroke-linecap:round;stroke-width:15px;}.cls-6{stroke-linejoin:round;}</style></defs><title>5</title><rect id="Logo_5" data-name="Logo 5" class="cls-1" width="640" height="800"/><text class="cls-2" transform="translate(138.98 615.54)">C<tspan x="35.71" y="0">AMP</tspan></text><text class="cls-3" transform="translate(297.19 615.54)">CR<tspan class="cls-4" x="72.19" y="0">A</tspan><tspan x="105.21" y="0">TER</tspan></text><path class="cls-5" d="M364,368.58l71.39,80.75a159,159,0,1,1,25.25-216.9L375.22,294A53,53,0,1,0,364,368.58Z"/><path class="cls-6" d="M199.44,413.66q-2-3.22-3.93-6.54t-3.62-6.73q-1.73-3.41-3.29-6.9t-3-7.06q-1.4-3.57-2.63-7.2t-2.28-7.34q-1.05-3.7-1.93-7.46"/><path class="cls-6" d="M254.42,465.34q-3.39-2-6.67-4.06t-6.43-4.36q-3.15-2.25-6.18-4.65t-5.92-4.93q-2.9-2.53-5.66-5.19t-5.39-5.45"/><path class="cls-6" d="M443.07,443.07q-2.79,2.63-5.69,5.12T431.45,453q-3,2.34-6.14,4.54T419,461.79q-3.22,2-6.54,3.93t-6.73,3.62q-3.41,1.73-6.9,3.29t-7.06,3q-3.57,1.4-7.2,2.63t-7.34,2.28q-3.7,1.05-7.46,1.93T362.17,484q-3.81.69-7.67,1.2t-7.76.82q-3.9.32-7.83,0.44t-7.9.05q-4-.07-7.95-0.35t-8-.75q-4-.48-8-1.17t-8-1.59q-4-.9-7.94-2t-7.75-2.37"/><path class="cls-6" d="M203.33,352.14q-0.58-3.18-1-6.39t-0.69-6.47q-0.26-3.25-.37-6.53"/><path class="cls-6" d="M237.44,419.55q-2.19-2.32-4.26-4.74t-4-4.94q-2-2.51-3.78-5.12t-3.53-5.29q-1.7-2.69-3.28-5.45t-3-5.6q-1.44-2.84-2.75-5.75"/><path class="cls-6" d="M448.72,393.58q-1.63,2.83-3.38,5.55t-3.63,5.36q-1.88,2.63-3.87,5.15t-4.11,4.94q-2.11,2.41-4.33,4.72t-4.54,4.49q-2.32,2.19-4.74,4.26t-4.94,4q-2.51,2-5.12,3.78t-5.29,3.53q-2.69,1.7-5.45,3.28t-5.6,3q-2.84,1.44-5.75,2.75t-5.88,2.47q-3,1.17-6,2.19T370,455q-3.08.88-6.22,1.61t-6.31,1.31q-3.18.58-6.39,1t-6.47.69q-3.25.26-6.53,0.37t-6.58,0q-3.3-.06-6.62-0.29t-6.66-.63q-3.34-.4-6.68-1t-6.69-1.32q-3.35-.75-6.62-1.66t-6.46-2q-3.19-1.06-6.29-2.27t-6.12-2.57q-3-1.35-5.93-2.85t-5.75-3.12q-2.83-1.63-5.55-3.38"/><path class="cls-6" d="M247.05,388.44q-1.46-2.08-2.83-4.23t-2.62-4.36q-1.26-2.21-2.41-4.48t-2.2-4.6q-1-2.33-2-4.7t-1.75-4.8"/><path class="cls-6" d="M285.48,421.87q-2.34-1.19-4.6-2.49t-4.44-2.7q-2.18-1.4-4.28-2.91"/><path class="cls-6" d="M432.56,366.12q-1,2.48-2.05,4.89t-2.28,4.75q-1.19,2.34-2.49,4.6T423,384.8q-1.4,2.18-2.91,4.28T417,393.2q-1.6,2-3.29,3.95t-3.46,3.78q-1.77,1.84-3.63,3.6t-3.79,3.41q-1.94,1.66-3.95,3.22t-4.09,3q-2.08,1.46-4.23,2.83t-4.36,2.62q-2.21,1.26-4.48,2.41t-4.6,2.2q-2.33,1-4.7,2t-4.8,1.75q-2.42.82-4.89,1.52t-5,1.29q-2.51.58-5,1t-5.11.8q-2.57.34-5.17,0.55t-5.22.29q-2.62.08-5.27,0t-5.3-.23q-2.66-.18-5.33-0.5T316,432q-2.68-.46-5.36-1.06"/><path class="cls-6" d="M255.51,341.62q-0.35-1.91-.6-3.84t-0.41-3.88q-0.16-1.95-.22-3.92t0-3.95q0-2,.17-4t0.38-4q0.24-2,.58-4t0.79-4q0.45-2,1-4"/><path class="cls-6" d="M406.33,360.12q-0.81,1.81-1.71,3.56t-1.87,3.45q-1,1.7-2,3.33t-2.18,3.21q-1.13,1.58-2.32,3.09t-2.46,3q-1.27,1.45-2.6,2.83t-2.72,2.7q-1.39,1.31-2.85,2.56t-3,2.42q-1.51,1.17-3.07,2.27t-3.17,2.12q-1.61,1-3.27,2t-3.36,1.81q-1.7.86-3.45,1.65t-3.53,1.48q-1.78.7-3.6,1.31T355.5,404q-1.85.53-3.73,1t-3.79.78q-1.91.35-3.84,0.6t-3.88.41q-1.95.16-3.92,0.22t-3.95,0q-2,0-4-.17t-4-.38q-2-.24-4-0.58t-4-.79q-2-.45-4-1t-3.87-1.18q-1.91-.64-3.77-1.36T301.12,400q-1.81-.81-3.56-1.71t-3.45-1.87q-1.7-1-3.33-2t-3.21-2.18q-1.58-1.13-3.09-2.32t-3-2.46q-1.45-1.27-2.83-2.6t-2.7-2.72q-1.31-1.39-2.56-2.85t-2.42-3q-1.17-1.51-2.27-3.07T266.62,370q-1-1.61-2-3.27"/><path class="cls-6" d="M370.22,366q-1.86,1.75-3.87,3.32t-4.16,2.93q-2.15,1.36-4.42,2.52t-4.65,2.09q-2.38.93-4.85,1.64t-5,1.17q-2.54.46-5.14,0.67t-5.24.16a52.94,52.94,0,0,1-5.31-.37A53.82,53.82,0,0,1,317,377.72a52.94,52.94,0,0,1-5-1.94q-2.41-1.08-4.67-2.39T303,370.6q-2.1-1.5-4-3.19t-3.69-3.55Q293.5,362,291.94,360T289,355.82q-1.36-2.15-2.52-4.42t-2.09-4.65q-0.93-2.38-1.64-4.85t-1.17-5q-0.46-2.54-.67-5.14t-0.16-5.24"/><circle class="cls-7" cx="405.03" cy="406.5" r="60.94" transform="translate(-80.2 712.84) rotate(-77.37)"/><ellipse class="cls-1" cx="408.24" cy="349.1" rx="16.73" ry="16.81" transform="translate(-123.46 272.81) rotate(-32.37)"/><circle class="cls-1" cx="381.27" cy="418.76" r="14.58" transform="translate(-110.73 699.23) rotate(-77.37)"/><circle class="cls-1" cx="378.37" cy="379.03" r="8.73" transform="translate(-74.22 665.37) rotate(-77.37)"/><path class="cls-1" d="M457.23,382.29l2.65,4.71,3.75,20.58-3.89,13.74-0.65,2.18a20.67,20.67,0,0,1-11.14-38.08A20.4,20.4,0,0,1,457.23,382.29Z"/><path class="cls-7" d="M417.19,352.21a55.63,55.63,0,1,1-66.45,42.12,55.7,55.7,0,0,1,66.45-42.12m1.16-5.17a60.94,60.94,0,1,0,46.14,72.79A60.94,60.94,0,0,0,418.35,347h0Z"/><path class="cls-8" d="M371.33,365q-1.8,1.8-3.77,3.42t-4.08,3.05q-2.12,1.43-4.37,2.66t-4.64,2.23q-2.38,1-4.87,1.78t-5.08,1.31a52.94,52.94,0,0,1-5.26.8,53.82,53.82,0,0,1-10.84,0,52.94,52.94,0,0,1-5.26-.8q-2.59-.53-5.08-1.31t-4.87-1.78q-2.38-1-4.64-2.23t-4.37-2.66q-2.12-1.43-4.08-3.05T296.34,365q-1.8-1.8-3.42-3.77t-3.05-4.08q-1.43-2.12-2.66-4.37T285,348.11q-1-2.38-1.78-4.87t-1.31-5.08a52.94,52.94,0,0,1-.8-5.26,53.82,53.82,0,0,1,0-10.84,52.94,52.94,0,0,1,.8-5.26q0.53-2.59,1.31-5.08t1.78-4.87q1-2.38,2.23-4.64t2.66-4.37q1.43-2.12,3.05-4.08t3.42-3.77q1.8-1.8,3.77-3.42t4.08-3.05q2.12-1.43,4.37-2.66t4.64-2.23q2.38-1,4.87-1.78t5.08-1.31a52.94,52.94,0,0,1,5.26-.8,53.82,53.82,0,0,1,10.84,0,52.94,52.94,0,0,1,5.26.8q2.59,0.53,5.08,1.31t4.87,1.78q2.38,1,4.64,2.23t4.37,2.66q2.12,1.43,4.08,3.05"/></svg>