<svg id="Backgrounds" xmlns="http://www.w3.org/2000/svg" xmlns:xlink="http://www.w3.org/1999/xlink" viewBox="0 0 640 800"><defs><style>.cls-1{fill:#373038;}.cls-2{font-size:87px;font-family:Futura;}.cls-2,.cls-5{fill:#2bc12b;}.cls-3{letter-spacing:2px;}.cls-4{letter-spacing:-1px;}.cls-6{fill:none;stroke:#fff;stroke-miterlimit:10;stroke-width:5px;}.cls-7{fill:url(#linear-gradient);}.cls-8{fill:url(#linear-gradient-2);}.cls-9{fill:url(#linear-gradient-3);}.cls-10{fill:#fff;}</style><linearGradient id="linear-gradient" x1="237.54" y1="257.97" x2="367.96" y2="210.88" gradientUnits="userSpaceOnUse"><stop offset="0" stop-color="#fff" stop-opacity="0"/><stop offset="1" stop-color="#fff"/></linearGradient><linearGradient id="linear-gradient-2" x1="100.6" y1="141.2" x2="319.87" y2="359" xlink:href="#linear-gradient"/><linearGradient id="linear-gradient-3" x1="235.88" y1="268.2" x2="148.87" y2="401.89" xlink:href="#linear-gradient"/></defs><title>6</title><rect id="Logo_6" data-name="Logo 6" class="cls-1" width="640" height="800"/><text class="cls-2" transform="translate(164.11 614.59)"><tspan class="cls-3">C</tspan><tspan x="35.6" y="0">AMPCR</tspan><tspan class="cls-4" x="225.02" y="0">A</tspan><tspan x="259.09" y="0">TER</tspan></text><circle class="cls-5" cx="344.95" cy="382.11" r="113.48"/><circle id="Body" class="cls-6" cx="344.95" cy="382.11" r="92.81"/><path id="Right" class="cls-7" d="M395.35,304.17l-12.91-7a92.83,92.83,0,0,0-124.35,52.25l-18.21-80.34L227.2,213.24l-11.46-50.57Z"/><path id="Middle" class="cls-8" d="M227.2,213.24l-89.46-48.38,41.06,85.59,84.13,175.38,0.53,1.11,0.14-.13c-0.21-.37-0.42-0.75-0.6-1.14A92.84,92.84,0,0,1,382.43,297.18Z"/><path id="Left" class="cls-9" d="M258.08,349.44A92.93,92.93,0,0,0,263,425.67l-0.07.16,0,0.1-135-191,50.91,15.55,61.07,18.65,78.68,24A92.94,92.94,0,0,0,258.08,349.44Z"/><circle id="Body_inner" data-name="Body inner" class="cls-10" cx="344.95" cy="382.11" r="79.19"/></svg>