<svg id="Layer_1" data-name="Layer 1" xmlns="http://www.w3.org/2000/svg" viewBox="0 0 1000 800"><defs><style>.cls-1{fill:#30787f;}.cls-2{fill:#282525;}.cls-3{fill:#efddd0;}</style></defs><title>Comet</title><rect id="Logo_1" data-name="Logo 1" class="cls-1" width="1000" height="800"/><circle id="Background" class="cls-2" cx="500" cy="400" r="312.33"/><g id="Comet_White"><path class="cls-3" d="M638.91,421.22l-1.11-1-0.26-.26L483.05,278.68a10.62,10.62,0,1,0-14.33,15.67l15.3,14a10.62,10.62,0,0,1,.67,15h0a10.62,10.62,0,0,1-15,.67l-93.61-85.61a10.62,10.62,0,1,0-14.33,15.67l27.73,25.36a10.62,10.62,0,0,1,.67,15h0a10.62,10.62,0,0,1-15,.67l-9.27-8.48a10.62,10.62,0,1,0-14.33,15.67L407,353a10.62,10.62,0,0,1,.67,15h0a10.62,10.62,0,0,1-15,.67l-30.61-28a10.71,10.71,0,0,0-15.07.7,10.59,10.59,0,0,0,.74,15L534.3,526.94q2,2.12,4.16,4.12A74.42,74.42,0,1,0,638.91,421.22Z"/><path class="cls-3" d="M350.81,287.32l0,0,0,0Z"/><path class="cls-3" d="M361,239.08l0,0v0Z"/><path class="cls-3" d="M347,341.4l0,0,0,0Z"/><path class="cls-3" d="M468,279.35h0Z"/><circle class="cls-3" cx="586.12" cy="473.82" r="99.62" transform="translate(-159.08 586.57) rotate(-47.56)"/><rect class="cls-3" x="289.43" y="247.2" width="58.04" height="21.29" rx="10.65" ry="10.65" transform="translate(257.47 -147.34) rotate(42.44)"/></g><g id="Comet_Green"><path class="cls-1" d="M619.78,432.46c-0.56-.51-1.14-1-1.7-1.52L536,355.87a10.83,10.83,0,0,0-15.19.57l0,0a10.77,10.77,0,0,0,.84,15.13l11.09,10.14a10.62,10.62,0,0,1,.67,15h0a10.62,10.62,0,0,1-15,.67L465.7,349.12a10.54,10.54,0,0,0-14.94.83l0,0a10.44,10.44,0,0,0,.58,14.88l39.08,35.74a10.62,10.62,0,0,1,.67,15h0a10.62,10.62,0,0,1-15,.67l-9.53-8.71a10.82,10.82,0,0,0-15.18.65l0-.05a10.69,10.69,0,0,0,.81,15.07l93.3,85.33c0.24,0.22.42,0.5,0.67,0.7,0.59,0.59,1.15,1.2,1.77,1.77A53.18,53.18,0,1,0,619.78,432.46Z"/><rect class="cls-1" x="406.86" y="315.76" width="36.23" height="21.29" rx="10.65" ry="10.65" transform="translate(331.66 -201.26) rotate(42.44)"/><circle class="cls-1" cx="586.12" cy="473.82" r="67.2" transform="translate(-159.08 586.57) rotate(-47.56)"/></g><g id="Stars"><ellipse class="cls-3" cx="586.12" cy="209.37" rx="7.94" ry="39.08"/><ellipse class="cls-3" cx="586.12" cy="209.37" rx="39.08" ry="7.94"/><ellipse class="cls-3" cx="318.45" cy="494.88" rx="6.09" ry="30"/><ellipse class="cls-3" cx="318.45" cy="494.88" rx="30" ry="6.09"/><circle class="cls-3" cx="530.13" cy="169.07" r="6.72"/><ellipse class="cls-3" cx="430.12" cy="171.59" rx="4.2" ry="20.68"/><ellipse class="cls-3" cx="430.12" cy="171.59" rx="20.68" ry="4.2"/><ellipse class="cls-3" cx="399.47" cy="536.17" rx="3.44" ry="16.94"/><ellipse class="cls-3" cx="399.47" cy="536.17" rx="16.94" ry="3.44"/><circle class="cls-3" cx="430.67" cy="614.05" r="6.72"/><circle class="cls-3" cx="701.71" cy="337.83" r="8.57"/><circle class="cls-3" cx="500" cy="630.53" r="7.06"/></g></svg>