<svg id="Layer_1" data-name="Layer 1" xmlns="http://www.w3.org/2000/svg" viewBox="0 0 1280 1199.58"><defs><style>.cls-1{fill:#d6d5d4;}.cls-2{fill:#e8e8e8;}.cls-3{fill:#fff;}.cls-4{fill:#9eaeaf;}</style></defs><title>Envelope</title><polygon class="cls-1" points="1281 400.58 1281 1199.09 642.01 799.86 1281 400.58"/><polygon class="cls-2" points="640.59 800 640.27 800.05 640.18 800.06 0 1199.77 0 400.58 1.14 400.58 640.59 800"/><polygon class="cls-3" points="1280 399.4 1280 400.58 0 400.58 0 399.77 640.11 0.11 640.14 0.05 640.53 0 640.15 0.06 1279 399.4 1279 399.09 1280 399.4"/><polygon class="cls-3" points="1281 1199.4 1281 1200.58 1 1200.58 1 1199.77 558.33 799.58 641.11 800.11 641.14 800.05 641.53 800 641.15 800.06 724.78 800.17 1280 1199.4 1280 1199.09 1281 1199.4"/><polygon class="cls-4" points="1281 400.58 641.97 859.67 2.94 400.58 1281 400.58"/></svg>