<svg xmlns="http://www.w3.org/2000/svg" xmlns:xlink="http://www.w3.org/1999/xlink" viewBox="0 0 1280 800"><defs><style>.cls-1,.cls-105,.cls-2,.cls-3,.cls-87{fill:none;}.cls-2,.cls-3{stroke:#231f20;}.cls-2{stroke-width:0.72px;}.cls-3{stroke-width:0.3px;}.cls-4{isolation:isolate;}.cls-5{fill:#e8e4da;}.cls-6{fill:#709eb3;}.cls-11,.cls-13,.cls-7{mix-blend-mode:color-dodge;}.cls-11,.cls-8{fill:url(#_10_lpi_10_);}.cls-9{fill:#e5c283;}.cls-10{opacity:0.5;}.cls-10,.cls-22{fill:url(#Hatching);}.cls-12{fill:#75a047;}.cls-13{fill:url(#Crosses);}.cls-14{fill:url(#linear-gradient);}.cls-15{fill:#f11736;}.cls-16{fill:#5b5b5b;}.cls-17{fill:#e6e7e8;}.cls-18{fill:url(#linear-gradient-2);}.cls-19{fill:url(#linear-gradient-3);}.cls-20{fill:url(#linear-gradient-4);}.cls-21{fill:url(#linear-gradient-5);}.cls-23{fill:#fff;}.cls-24{fill:#ff6c6c;}.cls-25{fill:#cc5050;}.cls-26{fill:url(#linear-gradient-6);}.cls-27{fill:url(#linear-gradient-7);}.cls-28{fill:url(#linear-gradient-8);}.cls-29{fill:url(#linear-gradient-9);}.cls-30{fill:#2b3d30;}.cls-31{fill:#936737;}.cls-32{fill:#2a2930;}.cls-33{fill:#36513e;}.cls-34{fill:#676868;}.cls-35{fill:#898989;}.cls-36{fill:#e8e8e8;}.cls-37{fill:#c9c9c9;}.cls-38{fill:url(#linear-gradient-10);}.cls-39{fill:url(#linear-gradient-11);}.cls-40{fill:#475f70;}.cls-41{fill:#c0c963;}.cls-42{fill:url(#linear-gradient-12);}.cls-43{fill:#96562a;}.cls-44{fill:#5e5e5e;}.cls-45{fill:#cc7e4a;}.cls-46{fill:#e5a377;}.cls-47{fill:#756f6e;}.cls-48{fill:url(#linear-gradient-13);}.cls-49{fill:#4e2e15;}.cls-50{fill:#9b6d4b;}.cls-51{fill:#633d1a;}.cls-52{fill:#7a4d2c;}.cls-53{fill:#ac6535;}.cls-54{fill:#9a5f2d;}.cls-55{fill:#c3813f;}.cls-56{fill:#a96634;}.cls-57{fill:#995f2d;}.cls-58{fill:#b27035;}.cls-59{fill:#99602c;}.cls-60{fill:#c5813f;}.cls-61{fill:#b37136;}.cls-62{fill:#7a4e2d;}.cls-63{fill:#c4813f;}.cls-64{fill:#ce8e53;}.cls-65{fill:#9b602c;}.cls-66{fill:#7f4c23;}.cls-67{fill:#643c1b;}.cls-68{fill:#507775;}.cls-69{fill:url(#linear-gradient-14);}.cls-70{fill:url(#linear-gradient-15);}.cls-71{fill:url(#linear-gradient-16);}.cls-72{fill:#443b2c;}.cls-73{fill:#e0b220;}.cls-74{fill:#d8991d;}.cls-75{fill:#6b6258;}.cls-76{fill:#4f4537;}.cls-77{fill:#30291f;}.cls-78{fill:#a70d29;}.cls-79{font-size:25px;fill:#417445;font-family:NTF-Grand;}.cls-80{fill:#543503;}.cls-81{fill:#ddbd97;}.cls-82{fill:#e0b996;}.cls-83{fill:#afafaf;}.cls-84{fill:#c98777;}.cls-85{fill:#724a03;}.cls-86{fill:#69bcae;}.cls-87{stroke:#2a2930;stroke-linecap:round;stroke-linejoin:round;stroke-width:2px;}.cls-88{fill:#c92424;}.cls-89{fill:#39726f;}.cls-90{fill:#fde2ba;}.cls-91{fill:#fde7cb;}.cls-92{fill:#544e47;}.cls-93{fill:#ea869c;}.cls-94{fill:#f99ea6;}.cls-95{fill:#f88b99;}.cls-96{fill:#846f65;}.cls-97{fill:#a19181;}.cls-98{fill:#b4afab;}.cls-99{fill:#4a3a27;}.cls-100{fill:#6d5a4b;}.cls-101{fill:#7d7570;}.cls-102{fill:#ea8a28;}.cls-103{fill:#faa443;}.cls-104{fill:#fab457;}.cls-105{stroke:#afafaf;stroke-miterlimit:10;stroke-width:3px;}</style><pattern id="_10_lpi_10_" data-name="10 lpi 10%" width="72" height="72" patternUnits="userSpaceOnUse" viewBox="0 0 72 72"><rect class="cls-1" width="72" height="72"/><line class="cls-2" x1="71.75" y1="68.4" x2="144.25" y2="68.4"/><line class="cls-2" x1="71.75" y1="54" x2="144.25" y2="54"/><line class="cls-2" x1="71.75" y1="39.6" x2="144.25" y2="39.6"/><line class="cls-2" x1="71.75" y1="25.2" x2="144.25" y2="25.2"/><line class="cls-2" x1="71.75" y1="10.8" x2="144.25" y2="10.8"/><line class="cls-2" x1="71.75" y1="61.2" x2="144.25" y2="61.2"/><line class="cls-2" x1="71.75" y1="46.8" x2="144.25" y2="46.8"/><line class="cls-2" x1="71.75" y1="32.4" x2="144.25" y2="32.4"/><line class="cls-2" x1="71.75" y1="18" x2="144.25" y2="18"/><line class="cls-2" x1="71.75" y1="3.6" x2="144.25" y2="3.6"/><line class="cls-2" x1="-0.25" y1="68.4" x2="72.25" y2="68.4"/><line class="cls-2" x1="-0.25" y1="54" x2="72.25" y2="54"/><line class="cls-2" x1="-0.25" y1="39.6" x2="72.25" y2="39.6"/><line class="cls-2" x1="-0.25" y1="25.2" x2="72.25" y2="25.2"/><line class="cls-2" x1="-0.25" y1="10.8" x2="72.25" y2="10.8"/><line class="cls-2" x1="-0.25" y1="61.2" x2="72.25" y2="61.2"/><line class="cls-2" x1="-0.25" y1="46.8" x2="72.25" y2="46.8"/><line class="cls-2" x1="-0.25" y1="32.4" x2="72.25" y2="32.4"/><line class="cls-2" x1="-0.25" y1="18" x2="72.25" y2="18"/><line class="cls-2" x1="-0.25" y1="3.6" x2="72.25" y2="3.6"/><line class="cls-2" x1="-72.25" y1="68.4" x2="0.25" y2="68.4"/><line class="cls-2" x1="-72.25" y1="54" x2="0.25" y2="54"/><line class="cls-2" x1="-72.25" y1="39.6" x2="0.25" y2="39.6"/><line class="cls-2" x1="-72.25" y1="25.2" x2="0.25" y2="25.2"/><line class="cls-2" x1="-72.25" y1="10.8" x2="0.25" y2="10.8"/><line class="cls-2" x1="-72.25" y1="61.2" x2="0.25" y2="61.2"/><line class="cls-2" x1="-72.25" y1="46.8" x2="0.25" y2="46.8"/><line class="cls-2" x1="-72.25" y1="32.4" x2="0.25" y2="32.4"/><line class="cls-2" x1="-72.25" y1="18" x2="0.25" y2="18"/><line class="cls-2" x1="-72.25" y1="3.6" x2="0.25" y2="3.6"/></pattern><pattern id="Hatching" data-name="Hatching" width="72" height="72" patternUnits="userSpaceOnUse" viewBox="0 0 72 72"><rect class="cls-1" width="72" height="72"/><line class="cls-3" x1="67.96" y1="72.85" x2="69.08" y2="69.89"/><line class="cls-3" x1="63.13" y1="72.98" x2="62.5" y2="69.71"/><line class="cls-3" x1="47.91" y1="73.84" x2="48.03" y2="70.84"/><line class="cls-3" x1="32.21" y1="72.24" x2="30.79" y2="70.19"/><line class="cls-3" x1="15.95" y1="72.38" x2="17.27" y2="70.42"/><line class="cls-3" x1="4.89" y1="73.71" x2="3.22" y2="71.39"/><line class="cls-3" x1="55.47" y1="74.02" x2="57.47" y2="71.02"/><line class="cls-3" x1="74.75" y1="24" x2="71.75" y2="24"/><line class="cls-3" x1="73.75" y1="39.75" x2="71.75" y2="41.25"/><line class="cls-3" x1="5.75" y1="10.75" x2="3" y2="12.75"/><line class="cls-3" x1="4.25" y1="67" x2="2" y2="68.75"/><line class="cls-3" x1="73.25" y1="7" x2="70" y2="7.75"/><line class="cls-3" x1="72" y1="18.75" x2="69.5" y2="20.5"/><line class="cls-3" x1="74.75" y1="24" x2="71.75" y2="24"/><line class="cls-3" x1="71.5" y1="31.5" x2="68.75" y2="29.75"/><line class="cls-3" x1="73.75" y1="39.75" x2="71.75" y2="41.25"/><line class="cls-3" x1="71.25" y1="51.75" x2="68.5" y2="49.5"/><line class="cls-3" x1="73.25" y1="62.75" x2="69" y2="62"/><line class="cls-3" x1="63.5" y1="61" x2="61.25" y2="62.75"/><line class="cls-3" x1="71.75" y1="45" x2="68.75" y2="45"/><line class="cls-3" x1="58" y1="17.5" x2="56.11" y2="14.68"/><line class="cls-3" x1="28" y1="16" x2="26.35" y2="13.44"/><line class="cls-3" x1="43.04" y1="11.56" x2="44.89" y2="8.88"/><line class="cls-3" x1="67.96" y1="72.85" x2="69.08" y2="69.89"/><line class="cls-3" x1="63.13" y1="72.98" x2="62.5" y2="69.71"/><line class="cls-3" x1="57" y1="48" x2="55.11" y2="45.18"/><line class="cls-3" x1="48.65" y1="19.56" x2="47" y2="17"/><line class="cls-3" x1="47.91" y1="73.84" x2="48.03" y2="70.84"/><line class="cls-3" x1="40.54" y1="70.31" x2="42.39" y2="67.63"/><line class="cls-3" x1="32.21" y1="72.24" x2="30.79" y2="70.19"/><line class="cls-3" x1="50.32" y1="40.79" x2="52.67" y2="38.13"/><line class="cls-3" x1="15.95" y1="72.38" x2="17.27" y2="70.42"/><line class="cls-3" x1="9.25" y1="70.87" x2="10.16" y2="66.65"/><line class="cls-3" x1="4.89" y1="73.71" x2="3.22" y2="71.39"/><line class="cls-3" x1="27.04" y1="70.04" x2="27.16" y2="67.05"/><line class="cls-3" x1="7.25" y1="5.25" x2="10.75" y2="6.75"/><line class="cls-3" x1="4.5" y1="20.75" x2="4.75" y2="17.5"/><line class="cls-3" x1="8" y1="43.75" x2="9.5" y2="47.5"/><line class="cls-3" x1="5.25" y1="38.25" x2="7.5" y2="34.5"/><line class="cls-3" x1="29.25" y1="4.5" x2="27" y2="7"/><line class="cls-3" x1="33.5" y1="4.5" x2="36.75" y2="7.25"/><line class="cls-3" x1="50.25" y1="4.5" x2="53.5" y2="6.5"/><line class="cls-3" x1="52.5" y1="10.5" x2="50.5" y2="13.75"/><line class="cls-3" x1="59.5" y1="9.25" x2="64.5" y2="7"/><line class="cls-3" x1="67" y1="12.75" x2="64.5" y2="14.5"/><line class="cls-3" x1="18.75" y1="4.75" x2="18.75" y2="7.75"/><line class="cls-3" x1="15.75" y1="9.75" x2="12.5" y2="10.25"/><line class="cls-3" x1="20" y1="14.25" x2="20.5" y2="17.5"/><line class="cls-3" x1="21" y1="9.75" x2="24.5" y2="9"/><line class="cls-3" x1="9.25" y1="21.5" x2="12" y2="19.5"/><line class="cls-3" x1="7.5" y1="64" x2="7.75" y2="60"/><line class="cls-3" x1="7.25" y1="55.75" x2="9.5" y2="53.25"/><line class="cls-3" x1="21.25" y1="65.75" x2="18.75" y2="62.25"/><line class="cls-3" x1="29.75" y1="28.5" x2="27.25" y2="30.25"/><line class="cls-3" x1="57.75" y1="33.75" x2="55" y2="32.25"/><line class="cls-3" x1="26.75" y1="40" x2="23" y2="39.25"/><line class="cls-3" x1="31.5" y1="49.5" x2="29.5" y2="51"/><line class="cls-3" x1="29" y1="61.5" x2="26.25" y2="59.25"/><line class="cls-3" x1="32.25" y1="65.75" x2="30.25" y2="64.5"/><line class="cls-3" x1="29.5" y1="54.75" x2="26.5" y2="54.75"/><line class="cls-3" x1="39.75" y1="19" x2="37.25" y2="20.75"/><line class="cls-3" x1="42.5" y1="24.25" x2="39.5" y2="24.25"/><line class="cls-3" x1="39.25" y1="31.75" x2="36.5" y2="30"/><line class="cls-3" x1="38.5" y1="42.5" x2="37.75" y2="45"/><line class="cls-3" x1="39" y1="52" x2="36.25" y2="49.75"/><line class="cls-3" x1="39.5" y1="60" x2="37.5" y2="58.75"/><line class="cls-3" x1="62.97" y1="44.52" x2="59.97" y2="44.52"/><line class="cls-3" x1="22.25" y1="43" x2="24.75" y2="44.75"/><line class="cls-3" x1="27" y1="20.5" x2="30" y2="20.5"/><line class="cls-3" x1="14.75" y1="34.75" x2="17.25" y2="36.5"/><line class="cls-3" x1="12" y1="40" x2="15" y2="40"/><line class="cls-3" x1="15.25" y1="47.5" x2="18" y2="45.75"/><line class="cls-3" x1="47.25" y1="33" x2="49.63" y2="31.44"/><line class="cls-3" x1="47.59" y1="25.47" x2="49.97" y2="27.29"/><line class="cls-3" x1="54.72" y1="21.48" x2="54.5" y2="24.5"/><line class="cls-3" x1="45.34" y1="65.56" x2="48.38" y2="65.69"/><line class="cls-3" x1="46.34" y1="59.72" x2="48.72" y2="61.54"/><line class="cls-3" x1="53.47" y1="55.73" x2="54.6" y2="58.79"/><line class="cls-3" x1="48.25" y1="43.5" x2="45.75" y2="45.25"/><line class="cls-3" x1="48" y1="51" x2="44.75" y2="50"/><line class="cls-3" x1="57" y1="66.5" x2="54.25" y2="64.75"/><line class="cls-3" x1="64.5" y1="41" x2="61.75" y2="39.25"/><line class="cls-3" x1="62.25" y1="52" x2="60.25" y2="53.5"/><line class="cls-3" x1="19.59" y1="29.56" x2="22.63" y2="29.69"/><line class="cls-3" x1="20.59" y1="23.72" x2="22.97" y2="25.54"/><line class="cls-3" x1="57.75" y1="28.5" x2="60.47" y2="29.04"/><line class="cls-3" x1="15" y1="55.75" x2="15.5" y2="59"/><line class="cls-3" x1="17" y1="53.75" x2="20.5" y2="53"/><line class="cls-3" x1="32.75" y1="12.75" x2="36.75" y2="13.5"/><line class="cls-3" x1="33.47" y1="33.52" x2="33.97" y2="37.02"/><line class="cls-3" x1="64.5" y1="23" x2="62" y2="21.75"/><line class="cls-3" x1="10" y1="13.5" x2="13.25" y2="16.25"/><line class="cls-3" x1="4.75" y1="29.5" x2="2.25" y2="31.25"/><line class="cls-3" x1="15.75" y1="24" x2="13.75" y2="25.5"/><line class="cls-3" x1="41.29" y1="4.81" x2="43.14" y2="2.13"/><line class="cls-3" x1="64.54" y1="35.06" x2="66.39" y2="32.38"/><line class="cls-3" x1="33.79" y1="26.31" x2="34.5" y2="23.5"/><line class="cls-3" x1="20.29" y1="58.81" x2="21" y2="56"/><line class="cls-3" x1="31.75" y1="42.75" x2="29.75" y2="44.25"/><line class="cls-3" x1="2.75" y1="24" x2="-0.25" y2="24"/><line class="cls-3" x1="1.75" y1="39.75" x2="-0.25" y2="41.25"/><line class="cls-3" x1="67.96" y1="0.85" x2="69.08" y2="-2.11"/><line class="cls-3" x1="63.13" y1="0.98" x2="62.5" y2="-2.29"/><line class="cls-3" x1="47.91" y1="1.84" x2="48.03" y2="-1.16"/><line class="cls-3" x1="32.21" y1="0.24" x2="30.79" y2="-1.81"/><line class="cls-3" x1="15.95" y1="0.38" x2="17.27" y2="-1.58"/><line class="cls-3" x1="4.89" y1="1.71" x2="3.22" y2="-0.61"/><line class="cls-3" x1="5.25" y1="52" x2="1.5" y2="51.25"/><line class="cls-3" x1="68.37" y1="57.34" x2="66.47" y2="54.52"/><line class="cls-3" x1="23.97" y1="36.02" x2="24.66" y2="33.23"/><line class="cls-3" x1="44.75" y1="37" x2="42.75" y2="38.5"/><line class="cls-3" x1="55.47" y1="2.02" x2="57.47" y2="-0.98"/><line class="cls-3" x1="55.47" y1="74.02" x2="57.47" y2="71.02"/><line class="cls-3" x1="1.25" y1="7" x2="-2" y2="7.75"/><line class="cls-3" y1="18.75" x2="-2.5" y2="20.5"/><line class="cls-3" x1="2.75" y1="24" x2="-0.25" y2="24"/><line class="cls-3" x1="1.75" y1="39.75" x2="-0.25" y2="41.25"/><line class="cls-3" x1="1.25" y1="62.75" x2="-3" y2="62"/><line class="cls-3" x1="67.96" y1="0.85" x2="69.08" y2="-2.11"/><line class="cls-3" x1="63.13" y1="0.98" x2="62.5" y2="-2.29"/><line class="cls-3" x1="47.91" y1="1.84" x2="48.03" y2="-1.16"/><line class="cls-3" x1="32.21" y1="0.24" x2="30.79" y2="-1.81"/><line class="cls-3" x1="15.95" y1="0.38" x2="17.27" y2="-1.58"/><line class="cls-3" x1="4.89" y1="1.71" x2="3.22" y2="-0.61"/><line class="cls-3" x1="55.47" y1="2.02" x2="57.47" y2="-0.98"/></pattern><pattern id="Crosses" data-name="Crosses" width="57.6" height="57.6" patternUnits="userSpaceOnUse" viewBox="0 0 57.6 57.6"><rect class="cls-1" width="57.6" height="57.6"/><line class="cls-3" x1="52.5" y1="3.6" x2="55.5" y2="3.6"/><line class="cls-3" x1="38.1" y1="3.6" x2="41.1" y2="3.6"/><line class="cls-3" x1="23.7" y1="3.6" x2="26.7" y2="3.6"/><line class="cls-3" x1="9.3" y1="3.6" x2="12.3" y2="3.6"/><line class="cls-3" x1="45.3" y1="10.8" x2="48.3" y2="10.8"/><line class="cls-3" x1="30.9" y1="10.8" x2="33.9" y2="10.8"/><line class="cls-3" x1="16.5" y1="10.8" x2="19.5" y2="10.8"/><line class="cls-3" x1="2.1" y1="10.8" x2="5.1" y2="10.8"/><line class="cls-3" x1="52.5" y1="18" x2="55.5" y2="18"/><line class="cls-3" x1="38.1" y1="18" x2="41.1" y2="18"/><line class="cls-3" x1="23.7" y1="18" x2="26.7" y2="18"/><line class="cls-3" x1="9.3" y1="18" x2="12.3" y2="18"/><line class="cls-3" x1="45.3" y1="25.2" x2="48.3" y2="25.2"/><line class="cls-3" x1="30.9" y1="25.2" x2="33.9" y2="25.2"/><line class="cls-3" x1="16.5" y1="25.2" x2="19.5" y2="25.2"/><line class="cls-3" x1="2.1" y1="25.2" x2="5.1" y2="25.2"/><line class="cls-3" x1="52.5" y1="32.4" x2="55.5" y2="32.4"/><line class="cls-3" x1="38.1" y1="32.4" x2="41.1" y2="32.4"/><line class="cls-3" x1="23.7" y1="32.4" x2="26.7" y2="32.4"/><line class="cls-3" x1="9.3" y1="32.4" x2="12.3" y2="32.4"/><line class="cls-3" x1="45.3" y1="39.6" x2="48.3" y2="39.6"/><line class="cls-3" x1="30.9" y1="39.6" x2="33.9" y2="39.6"/><line class="cls-3" x1="16.5" y1="39.6" x2="19.5" y2="39.6"/><line class="cls-3" x1="2.1" y1="39.6" x2="5.1" y2="39.6"/><line class="cls-3" x1="52.5" y1="46.8" x2="55.5" y2="46.8"/><line class="cls-3" x1="38.1" y1="46.8" x2="41.1" y2="46.8"/><line class="cls-3" x1="23.7" y1="46.8" x2="26.7" y2="46.8"/><line class="cls-3" x1="9.3" y1="46.8" x2="12.3" y2="46.8"/><line class="cls-3" x1="45.3" y1="54" x2="48.3" y2="54"/><line class="cls-3" x1="30.9" y1="54" x2="33.9" y2="54"/><line class="cls-3" x1="16.5" y1="54" x2="19.5" y2="54"/><line class="cls-3" x1="2.1" y1="54" x2="5.1" y2="54"/><line class="cls-3" x1="54" y1="2.1" x2="54" y2="5.1"/><line class="cls-3" x1="39.6" y1="2.1" x2="39.6" y2="5.1"/><line class="cls-3" x1="25.2" y1="2.1" x2="25.2" y2="5.1"/><line class="cls-3" x1="10.8" y1="2.1" x2="10.8" y2="5.1"/><line class="cls-3" x1="46.8" y1="9.3" x2="46.8" y2="12.3"/><line class="cls-3" x1="32.4" y1="9.3" x2="32.4" y2="12.3"/><line class="cls-3" x1="18" y1="9.3" x2="18" y2="12.3"/><line class="cls-3" x1="3.6" y1="9.3" x2="3.6" y2="12.3"/><line class="cls-3" x1="54" y1="16.5" x2="54" y2="19.5"/><line class="cls-3" x1="39.6" y1="16.5" x2="39.6" y2="19.5"/><line class="cls-3" x1="25.2" y1="16.5" x2="25.2" y2="19.5"/><line class="cls-3" x1="10.8" y1="16.5" x2="10.8" y2="19.5"/><line class="cls-3" x1="46.8" y1="23.7" x2="46.8" y2="26.7"/><line class="cls-3" x1="32.4" y1="23.7" x2="32.4" y2="26.7"/><line class="cls-3" x1="18" y1="23.7" x2="18" y2="26.7"/><line class="cls-3" x1="3.6" y1="23.7" x2="3.6" y2="26.7"/><line class="cls-3" x1="54" y1="30.9" x2="54" y2="33.9"/><line class="cls-3" x1="39.6" y1="30.9" x2="39.6" y2="33.9"/><line class="cls-3" x1="25.2" y1="30.9" x2="25.2" y2="33.9"/><line class="cls-3" x1="10.8" y1="30.9" x2="10.8" y2="33.9"/><line class="cls-3" x1="46.8" y1="38.1" x2="46.8" y2="41.1"/><line class="cls-3" x1="32.4" y1="38.1" x2="32.4" y2="41.1"/><line class="cls-3" x1="18" y1="38.1" x2="18" y2="41.1"/><line class="cls-3" x1="3.6" y1="38.1" x2="3.6" y2="41.1"/><line class="cls-3" x1="54" y1="45.3" x2="54" y2="48.3"/><line class="cls-3" x1="39.6" y1="45.3" x2="39.6" y2="48.3"/><line class="cls-3" x1="25.2" y1="45.3" x2="25.2" y2="48.3"/><line class="cls-3" x1="10.8" y1="45.3" x2="10.8" y2="48.3"/><line class="cls-3" x1="46.8" y1="52.5" x2="46.8" y2="55.5"/><line class="cls-3" x1="32.4" y1="52.5" x2="32.4" y2="55.5"/><line class="cls-3" x1="18" y1="52.5" x2="18" y2="55.5"/><line class="cls-3" x1="3.6" y1="52.5" x2="3.6" y2="55.5"/></pattern><linearGradient id="linear-gradient" x1="944.76" y1="308" x2="944.76" y2="253.96" gradientUnits="userSpaceOnUse"><stop offset="0" stop-color="#72873e" stop-opacity="0"/><stop offset="0.18" stop-color="#72873e" stop-opacity="0.03"/><stop offset="0.36" stop-color="#72873e" stop-opacity="0.11"/><stop offset="0.52" stop-color="#72873e" stop-opacity="0.25"/><stop offset="0.68" stop-color="#72873e" stop-opacity="0.45"/><stop offset="0.84" stop-color="#72873e" stop-opacity="0.7"/><stop offset="1" stop-color="#72873e"/></linearGradient><linearGradient id="linear-gradient-2" x1="1152" y1="545.42" x2="1240" y2="545.42" gradientUnits="userSpaceOnUse"><stop offset="0" stop-color="#fbc13b"/><stop offset="0.09" stop-color="#fbc13b" stop-opacity="0.98"/><stop offset="0.22" stop-color="#fbc33b" stop-opacity="0.91"/><stop offset="0.37" stop-color="#fbc53b" stop-opacity="0.79"/><stop offset="0.53" stop-color="#fbc83b" stop-opacity="0.63"/><stop offset="0.7" stop-color="#fbcc3b" stop-opacity="0.43"/><stop offset="0.88" stop-color="#fbd13b" stop-opacity="0.18"/><stop offset="1" stop-color="#fbd43b" stop-opacity="0"/></linearGradient><linearGradient id="linear-gradient-3" x1="881.76" y1="222" x2="881.76" y2="167.96" xlink:href="#linear-gradient"/><linearGradient id="linear-gradient-4" x1="994.28" y1="245" x2="994.28" y2="208.19" gradientUnits="userSpaceOnUse"><stop offset="0" stop-color="gray" stop-opacity="0"/><stop offset="0.22" stop-color="#707070" stop-opacity="0.32"/><stop offset="0.53" stop-color="#5d5d5d" stop-opacity="0.69"/><stop offset="0.8" stop-color="#515151" stop-opacity="0.92"/><stop offset="1" stop-color="#4d4d4d"/></linearGradient><linearGradient id="linear-gradient-5" x1="992.88" y1="245" x2="992.88" y2="228.48" xlink:href="#linear-gradient-4"/><linearGradient id="linear-gradient-6" x1="658.76" y1="478" x2="658.76" y2="423.96" xlink:href="#linear-gradient"/><linearGradient id="linear-gradient-7" x1="713.06" y1="441" x2="713.06" y2="400.37" xlink:href="#linear-gradient"/><linearGradient id="linear-gradient-8" x1="941.27" y1="186" x2="941.27" y2="141.78" xlink:href="#linear-gradient"/><linearGradient id="linear-gradient-9" x1="1045.76" y1="662" x2="1045.76" y2="621.63" xlink:href="#linear-gradient"/><linearGradient id="linear-gradient-10" x1="922.91" y1="113" x2="922.91" y2="68.76" gradientTransform="matrix(-1, 0, 0, 1, 1927.9, 0)" gradientUnits="userSpaceOnUse"><stop offset="0" stop-color="#fff" stop-opacity="0"/><stop offset="0.08" stop-color="#fff" stop-opacity="0.03"/><stop offset="0.22" stop-color="#fff" stop-opacity="0.13"/><stop offset="0.4" stop-color="#fff" stop-opacity="0.28"/><stop offset="0.6" stop-color="#fff" stop-opacity="0.49"/><stop offset="0.82" stop-color="#fff" stop-opacity="0.76"/><stop offset="1" stop-color="#fff"/></linearGradient><linearGradient id="linear-gradient-11" x1="312.06" y1="135" x2="312.06" y2="59.7" gradientTransform="translate(71.91)" xlink:href="#linear-gradient-10"/><linearGradient id="linear-gradient-12" x1="1009.92" y1="606" x2="1009.92" y2="571.54" gradientUnits="userSpaceOnUse"><stop offset="0" stop-color="#c69c6d" stop-opacity="0"/><stop offset="0.15" stop-color="#c69c6d" stop-opacity="0.12"/><stop offset="0.46" stop-color="#c69c6d" stop-opacity="0.42"/><stop offset="0.91" stop-color="#c69c6d" stop-opacity="0.9"/><stop offset="1" stop-color="#c69c6d"/></linearGradient><linearGradient id="linear-gradient-13" x1="994.76" y1="646" x2="994.76" y2="605.63" xlink:href="#linear-gradient"/><linearGradient id="linear-gradient-14" x1="660.69" y1="535" x2="660.69" y2="477.76" gradientTransform="matrix(1, 0, 0, 1, 0, 0)" xlink:href="#linear-gradient-10"/><linearGradient id="linear-gradient-15" x1="565.5" y1="638" x2="565.5" y2="467.33" gradientUnits="userSpaceOnUse"><stop offset="0" stop-color="#72873e" stop-opacity="0"/><stop offset="0.5" stop-color="#72873e" stop-opacity="0.52"/><stop offset="1" stop-color="#72873e"/></linearGradient><linearGradient id="linear-gradient-16" x1="431.97" y1="594" x2="431.97" y2="520.76" gradientTransform="matrix(1, 0, 0, 1, 0, 0)" xlink:href="#linear-gradient-10"/></defs><title>map</title><g class="cls-4"><g id="Background"><rect class="cls-5" width="1280" height="800"/></g><g id="Water"><path class="cls-6" d="M1273,453h-5a7,7,0,0,1-7-7V367a7,7,0,0,0-7-7h-33a7,7,0,0,1-7-7V198a7,7,0,0,0-7-7h-40a7,7,0,0,1,0-14h49a7,7,0,0,0,7-7V159a7,7,0,0,1,7-7h24a7,7,0,0,0,7-7V123a7,7,0,0,0-7-7h-87a7,7,0,0,1-7-7v-8a7,7,0,0,0-7-7h-65a7,7,0,0,1-7-7V65a7,7,0,0,0-7-7H938a7,7,0,0,0-7,7V87a7,7,0,0,1-7,7H829a7,7,0,0,0-7,7v8a7,7,0,0,1-7,7H801a7,7,0,0,0-7,7v11a7,7,0,0,1-7,7H763a7,7,0,0,0-7,7v22a7,7,0,0,0,7,7h269a7,7,0,0,1,7,7V353a7,7,0,0,1-7,7h-4a7,7,0,0,0-7,7v79a7,7,0,0,1-7,7h-1a7,7,0,0,0-7,7V793a7,7,0,0,0,7,7h260a7,7,0,0,0,7-7V460A7,7,0,0,0,1273,453Z"/><path class="cls-6" d="M1273,453h-5a7,7,0,0,1-7-7V367a7,7,0,0,0-7-7h-33a7,7,0,0,1-7-7V198a7,7,0,0,0-7-7h-40a7,7,0,0,1,0-14h49a7,7,0,0,0,7-7V159a7,7,0,0,1,7-7h24a7,7,0,0,0,7-7V123a7,7,0,0,0-7-7h-87a7,7,0,0,1-7-7v-8a7,7,0,0,0-7-7h-65a7,7,0,0,1-7-7V65a7,7,0,0,0-7-7H938a7,7,0,0,0-7,7V87a7,7,0,0,1-7,7H829a7,7,0,0,0-7,7v8a7,7,0,0,1-7,7H801a7,7,0,0,0-7,7v11a7,7,0,0,1-7,7H763a7,7,0,0,0-7,7v22a7,7,0,0,0,7,7h269a7,7,0,0,1,7,7V353a7,7,0,0,1-7,7h-4a7,7,0,0,0-7,7v79a7,7,0,0,1-7,7h-1a7,7,0,0,0-7,7V793a7,7,0,0,0,7,7h260a7,7,0,0,0,7-7V460A7,7,0,0,0,1273,453Z"/><path class="cls-6" d="M627,29H220a7,7,0,0,0-7,7v69a7,7,0,0,1-7,7H127a7,7,0,0,0-7,7v23a7,7,0,0,1-7,7H75a7,7,0,0,0-7,7v80a7,7,0,0,1-7,7H54a7,7,0,0,0-7,7v14a7,7,0,0,1-7,7H17a7,7,0,0,0-7,7v22a7,7,0,0,0,7,7H40a7,7,0,0,1,7,7v10a7,7,0,0,0,7,7h9a7,7,0,0,1,7,7v51a7,7,0,0,1-7,7H34a7,7,0,0,0-7,7v83.32H0V800H501a7,7,0,0,0,7-7V530a7,7,0,0,0-7-7H80v-6H540a7,7,0,0,0,7-7V444a7,7,0,0,1,7-7h29a7,7,0,0,0,7-7V323a7,7,0,0,0-7-7H521a7,7,0,0,1-7-7V266a7,7,0,0,1,7-7h7a7,7,0,0,0,7-7V229a7,7,0,0,1,7-7h38a7,7,0,0,0,7-7V146a7,7,0,0,1,7-7h33a7,7,0,0,0,7-7V36A7,7,0,0,0,627,29Z"/><path class="cls-6" d="M627,29H220a7,7,0,0,0-7,7v69a7,7,0,0,1-7,7H127a7,7,0,0,0-7,7v23a7,7,0,0,1-7,7H75a7,7,0,0,0-7,7v80a7,7,0,0,1-7,7H54a7,7,0,0,0-7,7v14a7,7,0,0,1-7,7H17a7,7,0,0,0-7,7v22a7,7,0,0,0,7,7H40a7,7,0,0,1,7,7v10a7,7,0,0,0,7,7h9a7,7,0,0,1,7,7v51a7,7,0,0,1-7,7H34a7,7,0,0,0-7,7v83.32H0V800H501a7,7,0,0,0,7-7V530a7,7,0,0,0-7-7H80v-6H540a7,7,0,0,0,7-7V444a7,7,0,0,1,7-7h29a7,7,0,0,0,7-7V323a7,7,0,0,0-7-7H521a7,7,0,0,1-7-7V266a7,7,0,0,1,7-7h7a7,7,0,0,0,7-7V229a7,7,0,0,1,7-7h38a7,7,0,0,0,7-7V146a7,7,0,0,1,7-7h33a7,7,0,0,0,7-7V36A7,7,0,0,0,627,29Z"/><path class="cls-6" d="M1273,453h-5a7,7,0,0,1-7-7V367a7,7,0,0,0-7-7h-33a7,7,0,0,1-7-7V198a7,7,0,0,0-7-7h-40a7,7,0,0,1,0-14h49a7,7,0,0,0,7-7V159a7,7,0,0,1,7-7h24a7,7,0,0,0,7-7V123a7,7,0,0,0-7-7h-87a7,7,0,0,1-7-7v-8a7,7,0,0,0-7-7h-65a7,7,0,0,1-7-7V65a7,7,0,0,0-7-7H938a7,7,0,0,0-7,7V87a7,7,0,0,1-7,7H829a7,7,0,0,0-7,7v8a7,7,0,0,1-7,7H801a7,7,0,0,0-7,7v11a7,7,0,0,1-7,7H763a7,7,0,0,0-7,7v22a7,7,0,0,0,7,7h269a7,7,0,0,1,7,7V353a7,7,0,0,1-7,7h-4a7,7,0,0,0-7,7v79a7,7,0,0,1-7,7h-1a7,7,0,0,0-7,7V793a7,7,0,0,0,7,7h260a7,7,0,0,0,7-7V460A7,7,0,0,0,1273,453Z"/><path class="cls-6" d="M1273,453h-5a7,7,0,0,1-7-7V367a7,7,0,0,0-7-7h-33a7,7,0,0,1-7-7V198a7,7,0,0,0-7-7h-40a7,7,0,0,1,0-14h49a7,7,0,0,0,7-7V159a7,7,0,0,1,7-7h24a7,7,0,0,0,7-7V123a7,7,0,0,0-7-7h-87a7,7,0,0,1-7-7v-8a7,7,0,0,0-7-7h-65a7,7,0,0,1-7-7V65a7,7,0,0,0-7-7H938a7,7,0,0,0-7,7V87a7,7,0,0,1-7,7H829a7,7,0,0,0-7,7v8a7,7,0,0,1-7,7H801a7,7,0,0,0-7,7v11a7,7,0,0,1-7,7H763a7,7,0,0,0-7,7v22a7,7,0,0,0,7,7h269a7,7,0,0,1,7,7V353a7,7,0,0,1-7,7h-4a7,7,0,0,0-7,7v79a7,7,0,0,1-7,7h-1a7,7,0,0,0-7,7V793a7,7,0,0,0,7,7h260a7,7,0,0,0,7-7V460A7,7,0,0,0,1273,453Z"/><path class="cls-6" d="M1273,453h-5a7,7,0,0,1-7-7V367a7,7,0,0,0-7-7h-33a7,7,0,0,1-7-7V198a7,7,0,0,0-7-7h-40a7,7,0,0,1,0-14h49a7,7,0,0,0,7-7V159a7,7,0,0,1,7-7h24a7,7,0,0,0,7-7V123a7,7,0,0,0-7-7h-87a7,7,0,0,1-7-7v-8a7,7,0,0,0-7-7h-65a7,7,0,0,1-7-7V65a7,7,0,0,0-7-7H938a7,7,0,0,0-7,7V87a7,7,0,0,1-7,7H829a7,7,0,0,0-7,7v8a7,7,0,0,1-7,7H801a7,7,0,0,0-7,7v11a7,7,0,0,1-7,7H763a7,7,0,0,0-7,7v22a7,7,0,0,0,7,7h269a7,7,0,0,1,7,7V353a7,7,0,0,1-7,7h-4a7,7,0,0,0-7,7v79a7,7,0,0,1-7,7h-1a7,7,0,0,0-7,7V793a7,7,0,0,0,7,7h260a7,7,0,0,0,7-7V460A7,7,0,0,0,1273,453Z"/><path class="cls-6" d="M627,29H220a7,7,0,0,0-7,7v69a7,7,0,0,1-7,7H127a7,7,0,0,0-7,7v23a7,7,0,0,1-7,7H75a7,7,0,0,0-7,7v80a7,7,0,0,1-7,7H54a7,7,0,0,0-7,7v14a7,7,0,0,1-7,7H17a7,7,0,0,0-7,7v22a7,7,0,0,0,7,7H40a7,7,0,0,1,7,7v10a7,7,0,0,0,7,7h9a7,7,0,0,1,7,7v51a7,7,0,0,1-7,7H34a7,7,0,0,0-7,7v83.32H0V800H501a7,7,0,0,0,7-7V530a7,7,0,0,0-7-7H80v-6H540a7,7,0,0,0,7-7V444a7,7,0,0,1,7-7h29a7,7,0,0,0,7-7V323a7,7,0,0,0-7-7H521a7,7,0,0,1-7-7V266a7,7,0,0,1,7-7h7a7,7,0,0,0,7-7V229a7,7,0,0,1,7-7h38a7,7,0,0,0,7-7V146a7,7,0,0,1,7-7h33a7,7,0,0,0,7-7V36A7,7,0,0,0,627,29Z"/><path class="cls-6" d="M627,29H220a7,7,0,0,0-7,7v69a7,7,0,0,1-7,7H127a7,7,0,0,0-7,7v23a7,7,0,0,1-7,7H75a7,7,0,0,0-7,7v80a7,7,0,0,1-7,7H54a7,7,0,0,0-7,7v14a7,7,0,0,1-7,7H17a7,7,0,0,0-7,7v22a7,7,0,0,0,7,7H40a7,7,0,0,1,7,7v10a7,7,0,0,0,7,7h9a7,7,0,0,1,7,7v51a7,7,0,0,1-7,7H34a7,7,0,0,0-7,7v83.32H0V800H501a7,7,0,0,0,7-7V530a7,7,0,0,0-7-7H80v-6H540a7,7,0,0,0,7-7V444a7,7,0,0,1,7-7h29a7,7,0,0,0,7-7V323a7,7,0,0,0-7-7H521a7,7,0,0,1-7-7V266a7,7,0,0,1,7-7h7a7,7,0,0,0,7-7V229a7,7,0,0,1,7-7h38a7,7,0,0,0,7-7V146a7,7,0,0,1,7-7h33a7,7,0,0,0,7-7V36A7,7,0,0,0,627,29Z"/><path class="cls-6" d="M627,29H220a7,7,0,0,0-7,7v69a7,7,0,0,1-7,7H127a7,7,0,0,0-7,7v23a7,7,0,0,1-7,7H75a7,7,0,0,0-7,7v80a7,7,0,0,1-7,7H54a7,7,0,0,0-7,7v14a7,7,0,0,1-7,7H17a7,7,0,0,0-7,7v22a7,7,0,0,0,7,7H40a7,7,0,0,1,7,7v10a7,7,0,0,0,7,7h9a7,7,0,0,1,7,7v51a7,7,0,0,1-7,7H34a7,7,0,0,0-7,7v83.32H0V800H501a7,7,0,0,0,7-7V530a7,7,0,0,0-7-7H80v-6H540a7,7,0,0,0,7-7V444a7,7,0,0,1,7-7h29a7,7,0,0,0,7-7V323a7,7,0,0,0-7-7H521a7,7,0,0,1-7-7V266a7,7,0,0,1,7-7h7a7,7,0,0,0,7-7V229a7,7,0,0,1,7-7h38a7,7,0,0,0,7-7V146a7,7,0,0,1,7-7h33a7,7,0,0,0,7-7V36A7,7,0,0,0,627,29Z"/><g class="cls-7"><path class="cls-8" d="M1273,453h-5a7,7,0,0,1-7-7V367a7,7,0,0,0-7-7h-33a7,7,0,0,1-7-7V198a7,7,0,0,0-7-7h-40a7,7,0,0,1,0-14h49a7,7,0,0,0,7-7V159a7,7,0,0,1,7-7h24a7,7,0,0,0,7-7V123a7,7,0,0,0-7-7h-87a7,7,0,0,1-7-7v-8a7,7,0,0,0-7-7h-65a7,7,0,0,1-7-7V65a7,7,0,0,0-7-7H938a7,7,0,0,0-7,7V87a7,7,0,0,1-7,7H829a7,7,0,0,0-7,7v8a7,7,0,0,1-7,7H801a7,7,0,0,0-7,7v11a7,7,0,0,1-7,7H763a7,7,0,0,0-7,7v22a7,7,0,0,0,7,7h269a7,7,0,0,1,7,7V353a7,7,0,0,1-7,7h-4a7,7,0,0,0-7,7v79a7,7,0,0,1-7,7h-1a7,7,0,0,0-7,7V793a7,7,0,0,0,7,7h260a7,7,0,0,0,7-7V460A7,7,0,0,0,1273,453Z"/><path class="cls-8" d="M1273,453h-5a7,7,0,0,1-7-7V367a7,7,0,0,0-7-7h-33a7,7,0,0,1-7-7V198a7,7,0,0,0-7-7h-40a7,7,0,0,1,0-14h49a7,7,0,0,0,7-7V159a7,7,0,0,1,7-7h24a7,7,0,0,0,7-7V123a7,7,0,0,0-7-7h-87a7,7,0,0,1-7-7v-8a7,7,0,0,0-7-7h-65a7,7,0,0,1-7-7V65a7,7,0,0,0-7-7H938a7,7,0,0,0-7,7V87a7,7,0,0,1-7,7H829a7,7,0,0,0-7,7v8a7,7,0,0,1-7,7H801a7,7,0,0,0-7,7v11a7,7,0,0,1-7,7H763a7,7,0,0,0-7,7v22a7,7,0,0,0,7,7h269a7,7,0,0,1,7,7V353a7,7,0,0,1-7,7h-4a7,7,0,0,0-7,7v79a7,7,0,0,1-7,7h-1a7,7,0,0,0-7,7V793a7,7,0,0,0,7,7h260a7,7,0,0,0,7-7V460A7,7,0,0,0,1273,453Z"/><path class="cls-8" d="M1273,453h-5a7,7,0,0,1-7-7V367a7,7,0,0,0-7-7h-33a7,7,0,0,1-7-7V198a7,7,0,0,0-7-7h-40a7,7,0,0,1,0-14h49a7,7,0,0,0,7-7V159a7,7,0,0,1,7-7h24a7,7,0,0,0,7-7V123a7,7,0,0,0-7-7h-87a7,7,0,0,1-7-7v-8a7,7,0,0,0-7-7h-65a7,7,0,0,1-7-7V65a7,7,0,0,0-7-7H938a7,7,0,0,0-7,7V87a7,7,0,0,1-7,7H829a7,7,0,0,0-7,7v8a7,7,0,0,1-7,7H801a7,7,0,0,0-7,7v11a7,7,0,0,1-7,7H763a7,7,0,0,0-7,7v22a7,7,0,0,0,7,7h269a7,7,0,0,1,7,7V353a7,7,0,0,1-7,7h-4a7,7,0,0,0-7,7v79a7,7,0,0,1-7,7h-1a7,7,0,0,0-7,7V793a7,7,0,0,0,7,7h260a7,7,0,0,0,7-7V460A7,7,0,0,0,1273,453Z"/><path class="cls-8" d="M627,29H220a7,7,0,0,0-7,7v69a7,7,0,0,1-7,7H127a7,7,0,0,0-7,7v23a7,7,0,0,1-7,7H75a7,7,0,0,0-7,7v80a7,7,0,0,1-7,7H54a7,7,0,0,0-7,7v14a7,7,0,0,1-7,7H17a7,7,0,0,0-7,7v22a7,7,0,0,0,7,7H40a7,7,0,0,1,7,7v10a7,7,0,0,0,7,7h9a7,7,0,0,1,7,7v51a7,7,0,0,1-7,7H34a7,7,0,0,0-7,7v83.32H0V800H501a7,7,0,0,0,7-7V530a7,7,0,0,0-7-7H80v-6H540a7,7,0,0,0,7-7V444a7,7,0,0,1,7-7h29a7,7,0,0,0,7-7V323a7,7,0,0,0-7-7H521a7,7,0,0,1-7-7V266a7,7,0,0,1,7-7h7a7,7,0,0,0,7-7V229a7,7,0,0,1,7-7h38a7,7,0,0,0,7-7V146a7,7,0,0,1,7-7h33a7,7,0,0,0,7-7V36A7,7,0,0,0,627,29Z"/><path class="cls-8" d="M627,29H220a7,7,0,0,0-7,7v69a7,7,0,0,1-7,7H127a7,7,0,0,0-7,7v23a7,7,0,0,1-7,7H75a7,7,0,0,0-7,7v80a7,7,0,0,1-7,7H54a7,7,0,0,0-7,7v14a7,7,0,0,1-7,7H17a7,7,0,0,0-7,7v22a7,7,0,0,0,7,7H40a7,7,0,0,1,7,7v10a7,7,0,0,0,7,7h9a7,7,0,0,1,7,7v51a7,7,0,0,1-7,7H34a7,7,0,0,0-7,7v83.32H0V800H501a7,7,0,0,0,7-7V530a7,7,0,0,0-7-7H80v-6H540a7,7,0,0,0,7-7V444a7,7,0,0,1,7-7h29a7,7,0,0,0,7-7V323a7,7,0,0,0-7-7H521a7,7,0,0,1-7-7V266a7,7,0,0,1,7-7h7a7,7,0,0,0,7-7V229a7,7,0,0,1,7-7h38a7,7,0,0,0,7-7V146a7,7,0,0,1,7-7h33a7,7,0,0,0,7-7V36A7,7,0,0,0,627,29Z"/><path class="cls-8" d="M627,29H220a7,7,0,0,0-7,7v69a7,7,0,0,1-7,7H127a7,7,0,0,0-7,7v23a7,7,0,0,1-7,7H75a7,7,0,0,0-7,7v80a7,7,0,0,1-7,7H54a7,7,0,0,0-7,7v14a7,7,0,0,1-7,7H17a7,7,0,0,0-7,7v22a7,7,0,0,0,7,7H40a7,7,0,0,1,7,7v10a7,7,0,0,0,7,7h9a7,7,0,0,1,7,7v51a7,7,0,0,1-7,7H34a7,7,0,0,0-7,7v83.32H0V800H501a7,7,0,0,0,7-7V530a7,7,0,0,0-7-7H80v-6H540a7,7,0,0,0,7-7V444a7,7,0,0,1,7-7h29a7,7,0,0,0,7-7V323a7,7,0,0,0-7-7H521a7,7,0,0,1-7-7V266a7,7,0,0,1,7-7h7a7,7,0,0,0,7-7V229a7,7,0,0,1,7-7h38a7,7,0,0,0,7-7V146a7,7,0,0,1,7-7h33a7,7,0,0,0,7-7V36A7,7,0,0,0,627,29Z"/></g></g><g id="Sand"><g id="Sand_Background" data-name="Sand Background"><path class="cls-9" d="M1234,574h-61a17,17,0,0,1-17-17V451a17,17,0,0,1,17-17h1a17,17,0,0,0,17-17V239a17,17,0,0,0-17-17h-61a17,17,0,0,1-17-17V175a17,17,0,0,0-17-17H962a17,17,0,0,0-17,17v38a17,17,0,0,0,17,17h60a17,17,0,0,1,17,17V382a17,17,0,0,1-17,17,17,17,0,0,0-17,17V613a17,17,0,0,0,17,17h60a17,17,0,0,1,17,17v84a17,17,0,0,0,17,17h118a17,17,0,0,0,17-17V591A17,17,0,0,0,1234,574Z"/><path class="cls-10" d="M1234,574h-61a17,17,0,0,1-17-17V451a17,17,0,0,1,17-17h1a17,17,0,0,0,17-17V239a17,17,0,0,0-17-17h-61a17,17,0,0,1-17-17V175a17,17,0,0,0-17-17H962a17,17,0,0,0-17,17v38a17,17,0,0,0,17,17h60a17,17,0,0,1,17,17V382a17,17,0,0,1-17,17,17,17,0,0,0-17,17V613a17,17,0,0,0,17,17h60a17,17,0,0,1,17,17v84a17,17,0,0,0,17,17h118a17,17,0,0,0,17-17V591A17,17,0,0,0,1234,574Z"/><path class="cls-9" d="M226.62,597H186.19C176,597,168,606,168,617v39c0,11-8.42,20-18.57,20H59.38C49.23,676,41,685,41,696v84c0,11,8.23,20,18.38,20H188c10.15,0,18-9,18-20V718c0-11,8.63-20,18.78-20h1.84c10.15,0,18.38-9,18.38-20V617C245,606,236.77,597,226.62,597Z"/><path class="cls-10" d="M226.62,597H186.19C176,597,168,606,168,617v39c0,11-8.42,20-18.57,20H59.38C49.23,676,41,685,41,696v84c0,11,8.23,20,18.38,20H188c10.15,0,18-9,18-20V718c0-11,8.63-20,18.78-20h1.84c10.15,0,18.38-9,18.38-20V617C245,606,236.77,597,226.62,597Z"/><path class="cls-9" d="M128.5,604.63h-91a20,20,0,0,1-20-20V495a20,20,0,0,1,20-20h91V604.63Z"/><path class="cls-10" d="M128.5,604.63h-91a20,20,0,0,1-20-20V495a20,20,0,0,1,20-20h91V604.63Z"/></g><path class="cls-6" d="M1280,800h-32a20,20,0,0,1-20-20V676.54a20,20,0,0,1,20-20h12a20,20,0,0,1,20,20V800Z"/><path class="cls-11" d="M1280,800h-32a20,20,0,0,1-20-20V676.54a20,20,0,0,1,20-20h12a20,20,0,0,1,20,20V800Z"/></g><g id="Land"><g id="Land_Background" data-name="Land Background"><g id="Land_Background-2" data-name="Land Background"><path class="cls-12" d="M1189,643.34A20.27,20.27,0,0,0,1168.87,623h-77.73A20,20,0,0,1,1071,603V423.26A20.2,20.2,0,0,1,1091.13,403h24.23c11.15,0,20.64-9,20.64-20.12V266.78c0-11.15-9.49-19.78-20.64-19.78h-24.23c-11.15,0-20.13-9.45-20.13-20.6V140.59c0-11.15-9.1-20.59-20.25-20.59H855.91A19.62,19.62,0,0,1,836,100.2V70.93C836,59.78,826.68,51,815.53,51H595.45C584.29,51,575,59.78,575,70.93V79a19.81,19.81,0,0,1-19.94,20H277.44A20.57,20.57,0,0,0,257,119.39v107c0,11.15-8.79,20.6-19.94,20.6H211.82A19.53,19.53,0,0,0,192,266.78v148.4c0,11.15-9.41,19.82-20.56,19.82H92.69C81.54,435,73,444.41,73,455.56V603c0,11.15,8.54,20,19.69,20h78.74A20.64,20.64,0,0,1,192,643.34v77.73c0,0.31-.34.62-0.32,0.93H192v78h997V722h0c0-.31,0-0.61,0-0.93V643.34Z"/><path class="cls-13" d="M1189,643.34A20.27,20.27,0,0,0,1168.87,623h-77.73A20,20,0,0,1,1071,603V423.26A20.2,20.2,0,0,1,1091.13,403h24.23c11.15,0,20.64-9,20.64-20.12V266.78c0-11.15-9.49-19.78-20.64-19.78h-24.23c-11.15,0-20.13-9.45-20.13-20.6V140.59c0-11.15-9.1-20.59-20.25-20.59H855.91A19.62,19.62,0,0,1,836,100.2V70.93C836,59.78,826.68,51,815.53,51H595.45C584.29,51,575,59.78,575,70.93V79a19.81,19.81,0,0,1-19.94,20H277.44A20.57,20.57,0,0,0,257,119.39v107c0,11.15-8.79,20.6-19.94,20.6H211.82A19.53,19.53,0,0,0,192,266.78v148.4c0,11.15-9.41,19.82-20.56,19.82H92.69C81.54,435,73,444.41,73,455.56V603c0,11.15,8.54,20,19.69,20h78.74A20.64,20.64,0,0,1,192,643.34v77.73c0,0.31-.34.62-0.32,0.93H192v78h997V722h0c0-.31,0-0.61,0-0.93V643.34Z"/></g><path class="cls-12" d="M126.46,716.07h96.72V800H106.46V736.07A20,20,0,0,1,126.46,716.07Z"/><path class="cls-13" d="M126.46,716.07h96.72V800H106.46V736.07A20,20,0,0,1,126.46,716.07Z"/></g><path id="Hill" class="cls-14" d="M1008,308s0-54-64.35-54c-62.13,0-62.13,54-62.13,54H1008Z"/><g id="Light_House" data-name="Light House"><path class="cls-15" d="M1151.79,662h-35.61a5,5,0,0,1-5-5.17l0.29-8.42V648l0.52-14.59V633l0.54-15.34,0.52-15,0.47-15.66,0.46-15v-0.09l0.53-10.91h38.16l0.31,10.91V572l1,14.91V587l0.57,15.66V603l0.58,14.66V618l0.62,15,0,0.41,0.6,14.59,0,0.41,0.35,8.38A5,5,0,0,1,1151.79,662Z"/><polygon class="cls-15" points="1152.25 551 1114.89 551 1115.45 535 1151.56 535 1152.25 551"/><polygon class="cls-16" points="1160 551 1160 561 1152.69 561 1152.25 551 1160 551"/><polygon class="cls-16" points="1114.89 551 1114.53 561 1108 561 1108 551 1114.89 551"/><polygon class="cls-16" points="1152.69 561 1114.53 561 1114.89 551 1152.25 551 1152.69 561"/><polygon class="cls-17" points="1133.57 517.67 1151.55 535.01 1115.42 535.01 1133.57 517.67"/><polygon class="cls-17" points="1154 586.91 1154 587 1113.62 587 1114.15 572 1153 572 1154 586.91"/><polygon class="cls-17" points="1155.17 618 1112.55 618 1113.07 603 1154.58 603 1155.16 617.66 1155.17 618"/><polygon class="cls-17" points="1156.41 648 1111.47 648 1112 633 1155.79 633 1155.81 633.41 1156.41 648"/><path class="cls-6" d="M1120.94,539.13h0a2.69,2.69,0,0,1,2.69,2.69V551a0,0,0,0,1,0,0h-5.37a0,0,0,0,1,0,0v-9.19A2.69,2.69,0,0,1,1120.94,539.13Z"/><path class="cls-6" d="M1146.31,539.13h0a2.69,2.69,0,0,1,2.69,2.69V551a0,0,0,0,1,0,0h-5.38a0,0,0,0,1,0,0v-9.19A2.69,2.69,0,0,1,1146.31,539.13Z"/><path class="cls-6" d="M1129.4,539.13h0a2.69,2.69,0,0,1,2.69,2.69V551a0,0,0,0,1,0,0h-5.37a0,0,0,0,1,0,0v-9.19A2.69,2.69,0,0,1,1129.4,539.13Z"/><path class="cls-6" d="M1137.85,539.13h0a2.69,2.69,0,0,1,2.69,2.69V551a0,0,0,0,1,0,0h-5.38a0,0,0,0,1,0,0v-9.19A2.69,2.69,0,0,1,1137.85,539.13Z"/><path class="cls-16" d="M1133.81,644h0a6.2,6.2,0,0,1,6.2,6.2V662a0,0,0,0,1,0,0h-12.39a0,0,0,0,1,0,0V650.2A6.2,6.2,0,0,1,1133.81,644Z"/><polygon class="cls-18" points="1152 540.58 1152 541 1152 549.83 1152 550.25 1240 572 1240 549.83 1240 541 1240 518.83 1152 540.58"/></g><path id="Hill-2" data-name="Hill" class="cls-19" d="M945,222s0-54-64.35-54c-62.13,0-62.13,54-62.13,54H945Z"/><g id="Cave"><polygon class="cls-20" points="935.75 245 946.69 224.73 975.92 212.52 994.91 208.19 1032.58 223.09 1052.8 245 935.75 245"/><polygon class="cls-21" points="972.75 245 978.75 233.75 987.88 228.48 1000.75 229.75 1013 245 972.75 245"/></g><path id="Lake" class="cls-6" d="M1189,753s-38-37.35-79-49.67-75.52-6.51-110.52-17.16S906,609,906,609l-96.71-10.67L756,706.17,817,760s45.71-10.4,93-18c73.12-11.75,144-31,189-17s90,49,90,49V753Z"/><polygon id="Lake_Surroundings" data-name="Lake Surroundings" class="cls-22" points="755 706.17 817.33 759.33 1004 725.67 1023.33 722 1042.75 721.25 1037.75 736.5 1029.5 740.25 1031.5 756 997.5 777.25 948.67 760.67 913.75 785.25 850.25 784.75 806.5 774.25 776.25 779.75 747.5 760.25 735.75 731.75 755 706.17"/><polygon id="Lake_Surroundings-2" data-name="Lake Surroundings" class="cls-22" points="809.17 598.33 755.96 706.21 749.83 712 727 701.5 734.75 663.25 756.25 651 766.25 627.75 787.75 606.75 809.17 598.33"/><g id="Plane"><circle class="cls-23" cx="925.89" cy="74.17" r="2.25"/><g id="Plane-2" data-name="Plane"><path class="cls-23" d="M949.73,79s-0.29,2.92-6.41,6.5c-3.26,1.91-10.49,2.5-10.49,2.5H873c-3,0-5.41-2.53-6.65-5.51L864.82,79h84.91Z"/><path class="cls-24" d="M950,78.43V79H864.82l-8.59-21h8.66l8.22,11h59.72a27.55,27.55,0,0,1,9.93,2.35C949.07,74.5,950,78.43,950,78.43Z"/><polyline class="cls-24" points="895.75 105.32 914.62 83.55 897.94 83.5 887.96 105.32"/><polygon class="cls-25" points="913.8 69 896.82 69 889.99 55 897.77 55 913.8 69"/><circle class="cls-23" cx="886.58" cy="74.17" r="2.25"/><circle class="cls-23" cx="894.45" cy="74.17" r="2.25"/><circle class="cls-23" cx="902.31" cy="74.17" r="2.25"/><circle class="cls-23" cx="910.17" cy="74.17" r="2.25"/><circle class="cls-23" cx="918.03" cy="74.17" r="2.25"/></g></g><g id="Path"><g id="Path-2" data-name="Path"><path class="cls-9" d="M254.61,182.72Q368.31,181.6,482,184.2c17.2,0.42,34.53,1.18,51.15,6A133,133,0,0,1,569,207.11c22.71,14.91,41.46,35,60,54.67,18.75,19.88,37.56,39.95,59.86,55.93s47.11,27.42,72.32,37.63c49.67,20.12,104.31,35,145.77,70.55,11.23,9.64,20.56,20.75,29.58,32.44,9.35,12.11,19.1,23.6,32.11,31.93,23.93,15.33,53.59,20.32,81.59,20.06,6.95-.06,13.88-0.5,20.79-1.22,5.7-.59,5.76-9.6,0-9-28.31,2.94-58.72,1.31-85-10.63a97.46,97.46,0,0,1-34.67-26.83c-10-11.88-18.67-24.66-29.8-35.54-38.88-38-92.21-54.95-141.76-74-25.65-9.88-51.2-20.53-74.56-35.18s-43-34-61.9-54c-18.49-19.5-36.6-39.62-58-56.08-22.95-17.68-48.49-28.46-77.42-31.28-18.11-1.76-36.44-1.6-54.62-1.94q-28.46-.54-56.92-0.84-56.93-.6-113.86-0.26-14,.08-28,0.22c-5.79.06-5.8,9.06,0,9h0Z"/></g><path class="cls-9" d="M730.77,796.69a131.43,131.43,0,0,0-24.17-58.45c-5.7-7.67-13.47-15-16.26-24.42C687.1,703,695.52,694,701.06,685.58c10.46-16,19.74-32.93,31.86-47.77,10.77-13.2,25-26.6,41.73-31.56,14.63-4.34,30.62-3.26,45.61-1.89,17.2,1.58,34.25,4.36,51.44,6,14.56,1.4,29.84,2.37,44.18-1.21,16.4-4.1,25.15-16.77,34.8-29.45,4.47-5.88,10.36-9.94,16.46-14,4.48-3,10.31-5.4,14.28-9,2.15-2,1.88-4.86,2-7.56,0.26-5.13.37-10.27,0.21-15.4-0.42-13.3-3.75-26.36-2.53-39.71,0.53-5.77-8.48-5.73-9,0-1.12,12.25,1.65,24.2,2.38,36.38a166.75,166.75,0,0,1-.31,22.76l2.23-3.89c-9.23,5.44-18.82,11.12-26.86,18.25-9.82,8.71-14.6,21.74-26.11,28.87s-27,6.58-40,5.88c-15.44-.83-30.75-3.14-46.08-5-14.85-1.83-29.9-3.58-44.89-2.82-14.28.72-26.84,4.37-38.85,12.23-29.43,19.26-44.83,51.47-63.94,79.75-5.74,8.49-10.84,17-8.61,27.66,2,9.44,8.57,17.15,14.43,24.48a127.13,127.13,0,0,1,26.56,60.53c0.87,5.71,9.54,3.28,8.68-2.39h0Z"/><path class="cls-9" d="M976.72,560.27C1006,539.05,1038.4,523,1072.4,511c5.42-1.93,3.08-10.62-2.39-8.68-34.72,12.33-67.94,28.54-97.83,50.22-4.64,3.37-.16,11.18,4.54,7.77h0Z"/><path class="cls-9" d="M688.73,689.84c-14.07,5.6-27,15.14-38.54,24.81-13.7,11.48-24.61,27.8-42.89,32.37-9.67,2.42-19.89,1-27-6.39-6.37-6.56-10.8-14.65-17.49-21-13.27-12.59-31.23-20.22-49.66-16.87-19,3.45-32.91,19.61-45.5,32.89-12.33,13-27.06,24-43.84,30.51-36.82,14.35-80,8-112.37-14.16-19.14-13.08-35.19-29.86-55.44-41.45a189.25,189.25,0,0,0-63.46-22.46c-5.67-.92-8.1,7.75-2.39,8.68a182.25,182.25,0,0,1,57.58,19.48c18.82,10.2,34.11,24.52,50.93,37.5,31.45,24.26,72.47,34.83,111.55,26a120.84,120.84,0,0,0,46.95-22.47c15.28-11.79,26.39-28.1,42.43-39,17.63-11.93,38.95-8,54.52,5.57,7.2,6.26,12,14.15,18.19,21.3a33.52,33.52,0,0,0,22.41,11.73c22.47,2.29,39.56-14,54.1-28.71a144.59,144.59,0,0,1,20.12-16.6c6.94-4.87,14.29-9.92,22.21-13.08,5.32-2.12,3-10.82-2.39-8.68h0Z"/></g><path id="Hill-3" data-name="Hill" class="cls-26" d="M722,478s0-54-64.35-54c-62.13,0-62.13,54-62.13,54H722Z"/><path id="Hill-4" data-name="Hill" class="cls-27" d="M760.6,441s0-40.6-48.38-40.63c-46.71,0-46.71,40.63-46.71,40.63H760.6Z"/><path id="Hill-5" data-name="Hill" class="cls-28" d="M993,186s0-44.19-52.66-44.22c-50.84,0-50.84,44.22-50.84,44.22H993Z"/><path id="Hill-6" data-name="Hill" class="cls-29" d="M1093,662s0-40.34-48.07-40.37c-46.41,0-46.41,40.37-46.41,40.37H1093Z"/><g id="Schilf"><path class="cls-30" d="M907,745.91l-1.61.44a67.36,67.36,0,0,1,0-35.55l1.61,0.44A65.69,65.69,0,0,0,907,745.91Z"/><rect class="cls-31" x="904.64" y="696.34" width="6.56" height="18.31" rx="3.28" ry="3.28" transform="translate(200.62 -201.02) rotate(14.19)"/><path class="cls-30" d="M904.13,733.38c1.22,7.19,1.48,9.76.29,10s-2.53-7-3.76-14.18-2.29-21.33-2.29-21.33S902.9,726.19,904.13,733.38Z"/><path class="cls-32" d="M909.67,697.06l1.23-2.62-0.27,2.88a0.51,0.51,0,1,1-1-.09A0.52,0.52,0,0,1,909.67,697.06Z"/><path class="cls-30" d="M823,759.91l1.61,0.44a67.36,67.36,0,0,0,0-35.55l-1.61.44A65.69,65.69,0,0,1,823,759.91Z"/><rect class="cls-31" x="818.81" y="710.34" width="6.56" height="18.31" rx="3.28" ry="3.28" transform="translate(1795.46 1215.56) rotate(165.81)"/><path class="cls-30" d="M825.88,747.38c-1.22,7.19-1.48,9.76-.29,10s2.53-7,3.76-14.18,2.29-21.33,2.29-21.33S827.11,740.19,825.88,747.38Z"/><path class="cls-32" d="M819.37,711.32l-0.27-2.88,1.23,2.62a0.51,0.51,0,1,1-.92.43A0.52,0.52,0,0,1,819.37,711.32Z"/><path class="cls-30" d="M794,737.91l-1.61.44a67.36,67.36,0,0,1,0-35.55l1.61,0.44A65.69,65.69,0,0,0,794,737.91Z"/><rect class="cls-31" x="791.64" y="688.34" width="6.56" height="18.31" rx="3.28" ry="3.28" transform="translate(195.21 -173.56) rotate(14.19)"/><path class="cls-30" d="M791.13,725.38c1.22,7.19,1.48,9.76.29,10s-2.53-7-3.76-14.18-2.29-21.33-2.29-21.33S789.9,718.19,791.13,725.38Z"/><path class="cls-32" d="M796.67,689.06l1.23-2.62-0.27,2.88a0.51,0.51,0,1,1-1-.09A0.52,0.52,0,0,1,796.67,689.06Z"/><path class="cls-30" d="M787.75,732.6l-1.55.61a67.36,67.36,0,0,1-3.86-35.34l1.65,0.26A65.69,65.69,0,0,0,787.75,732.6Z"/><rect class="cls-31" x="781.01" y="683.17" width="6.56" height="18.31" rx="3.28" ry="3.28" transform="translate(103.27 -101.8) rotate(7.95)"/><path class="cls-30" d="M783.55,720.45c2,7,2.53,9.54,1.37,9.87s-3.28-6.67-5.27-13.69-4.59-21-4.59-21S781.55,713.43,783.55,720.45Z"/><path class="cls-32" d="M785.11,683.74l0.94-2.74,0,2.89a0.51,0.51,0,0,1-1,0A0.52,0.52,0,0,1,785.11,683.74Z"/><path class="cls-30" d="M969,734.91l1.61,0.44a67.36,67.36,0,0,0,0-35.55l-1.61.44A65.69,65.69,0,0,1,969,734.91Z"/><rect class="cls-31" x="964.81" y="685.34" width="6.56" height="18.31" rx="3.28" ry="3.28" transform="translate(2076.87 1130.53) rotate(165.81)"/><path class="cls-30" d="M971.88,722.38c-1.22,7.19-1.48,9.76-.29,10s2.53-7,3.76-14.18,2.29-21.33,2.29-21.33S973.11,715.19,971.88,722.38Z"/><path class="cls-32" d="M965.37,686.32l-0.27-2.88,1.23,2.62a0.51,0.51,0,1,1-.92.43A0.52,0.52,0,0,1,965.37,686.32Z"/></g><g id="Grass"><path class="cls-33" d="M816.68,761.17c-4.25-12.07.82-35.58,0.82-35.58s-0.91,25.28,3,34.15a1.9,1.9,0,0,1-1,2.48l-0.19.09A1.93,1.93,0,0,1,816.68,761.17Z"/><path class="cls-33" d="M821.43,761c-3.19-12.39,3.9-35.37,3.9-35.37s-3.09,25.11,0,34.28a1.9,1.9,0,0,1-1.18,2.38l-0.19.07A1.93,1.93,0,0,1,821.43,761Z"/><path class="cls-33" d="M832.45,761.42c-3.68-9.38.71-27.67,0.71-27.67s-0.79,19.66,2.56,26.56a1.42,1.42,0,0,1-.84,1.93l-0.16.07A1.73,1.73,0,0,1,832.45,761.42Z"/><path class="cls-33" d="M835.64,760.75c-2.31-12.58,6.36-35,6.36-35s-4.84,24.83-2.41,34.19a1.9,1.9,0,0,1-1.35,2.29l-0.2.05A1.93,1.93,0,0,1,835.64,760.75Z"/><path class="cls-33" d="M842.49,760.13c-4.25-12.07.82-35.58,0.82-35.58s-0.91,25.28,3,34.15a1.9,1.9,0,0,1-1,2.48l-0.19.09A1.93,1.93,0,0,1,842.49,760.13Z"/><path class="cls-33" d="M845.49,760c-3.54-9.73.69-28.68,0.69-28.68s-0.76,20.38,2.46,27.53a1.51,1.51,0,0,1-.81,2l-0.15.07A1.62,1.62,0,0,1,845.49,760Z"/><path class="cls-33" d="M856.06,759.95c-3.19-12.39,3.9-35.37,3.9-35.37s-3.09,25.11,0,34.28a1.9,1.9,0,0,1-1.18,2.38l-0.19.07A1.93,1.93,0,0,1,856.06,759.95Z"/><path class="cls-33" d="M859.8,760.24c-2.46-9.26,2.93-26.41,2.93-26.41s-2.33,18.74,0,25.6a1.41,1.41,0,0,1-.9,1.78l-0.15.05A1.49,1.49,0,0,1,859.8,760.24Z"/><path class="cls-33" d="M865.36,758.07c-0.94-10.51,6-29.38,6-29.38s-4.47,20.84-3.29,28.66a1.79,1.79,0,0,1-1,1.93l-0.13,0A1.22,1.22,0,0,1,865.36,758.07Z"/><path class="cls-33" d="M876.38,756.62c3.19-12.39-3.9-35.37-3.9-35.37s3.09,25.11,0,34.28a1.9,1.9,0,0,0,1.18,2.38l0.19,0.07A1.93,1.93,0,0,0,876.38,756.62Z"/><path class="cls-33" d="M879.3,753.75c-2.46-9.26,2.93-26.41,2.93-26.41s-2.33,18.74,0,25.6a1.41,1.41,0,0,1-.9,1.78l-0.15.05A1.49,1.49,0,0,1,879.3,753.75Z"/><path class="cls-33" d="M883.81,753c-3.68-9.38.71-27.67,0.71-27.67s-0.79,19.66,2.56,26.56a1.42,1.42,0,0,1-.84,1.93l-0.16.07A1.73,1.73,0,0,1,883.81,753Z"/><path class="cls-33" d="M890.82,750.7c-3.19-12.39,3.9-35.37,3.9-35.37s-3.09,25.11,0,34.28a1.9,1.9,0,0,1-1.18,2.38l-0.19.07A1.93,1.93,0,0,1,890.82,750.7Z"/><path class="cls-33" d="M812.88,757.92c3.19-12.39-3.9-35.37-3.9-35.37s3.09,25.11,0,34.28a1.9,1.9,0,0,0,1.18,2.38l0.19,0.07A1.93,1.93,0,0,0,812.88,757.92Z"/><path class="cls-33" d="M781.09,733.78c-3.68-9.38.71-27.67,0.71-27.67s-0.79,19.66,2.56,26.56a1.42,1.42,0,0,1-.84,1.93l-0.16.07A1.73,1.73,0,0,1,781.09,733.78Z"/><path class="cls-33" d="M792.39,744.61c-2.31-12.58,6.36-35,6.36-35s-4.84,24.83-2.41,34.19a1.9,1.9,0,0,1-1.35,2.29l-0.2.05A1.93,1.93,0,0,1,792.39,744.61Z"/><path class="cls-33" d="M799.24,752.46c-4.25-12.07.82-35.58,0.82-35.58s-0.91,25.28,3,34.15a1.9,1.9,0,0,1-1,2.48l-0.19.09A1.93,1.93,0,0,1,799.24,752.46Z"/><path class="cls-33" d="M802.9,754.78c-3.54-9.73.69-28.68,0.69-28.68s-0.76,20.38,2.46,27.53a1.51,1.51,0,0,1-.81,2l-0.15.07A1.62,1.62,0,0,1,802.9,754.78Z"/><path class="cls-33" d="M789.38,737.41c3.19-12.39-3.9-35.37-3.9-35.37s3.09,25.11,0,34.28a1.9,1.9,0,0,0,1.18,2.38l0.19,0.07A1.93,1.93,0,0,0,789.38,737.41Z"/><path class="cls-33" d="M897.47,748.26c-4.25-12.07.82-35.58,0.82-35.58s-0.91,25.28,3,34.15a1.9,1.9,0,0,1-1,2.48l-0.19.09A1.93,1.93,0,0,1,897.47,748.26Z"/><path class="cls-33" d="M901.21,749.13c-3.54-9.73.69-28.68,0.69-28.68s-0.76,20.38,2.46,27.53a1.51,1.51,0,0,1-.81,2l-0.15.07A1.62,1.62,0,0,1,901.21,749.13Z"/><path class="cls-33" d="M908.87,747.38c2.85-10.26-3.27-29.24-3.27-29.24s2.61,20.76-.14,28.36a1.54,1.54,0,0,0,1,2l0.17,0.06A1.73,1.73,0,0,0,908.87,747.38Z"/><path class="cls-33" d="M924.12,746.46c-3.79-9.43.74-27.79,0.74-27.79s-0.81,19.75,2.63,26.68a1.42,1.42,0,0,1-.87,1.93l-0.17.07A1.8,1.8,0,0,1,924.12,746.46Z"/><path class="cls-33" d="M929.05,746c-3.19-12.39,3.9-35.37,3.9-35.37s-3.09,25.11,0,34.28a1.9,1.9,0,0,1-1.18,2.38l-0.19.07A1.93,1.93,0,0,1,929.05,746Z"/><path class="cls-33" d="M920.5,746c3.19-12.39-3.9-35.37-3.9-35.37s3.09,25.11,0,34.28a1.9,1.9,0,0,0,1.18,2.38l0.19,0.07A1.93,1.93,0,0,0,920.5,746Z"/><path class="cls-33" d="M931.36,744.71c-0.94-10.51,6-29.38,6-29.38s-4.47,20.84-3.29,28.66a1.79,1.79,0,0,1-1,1.93l-0.13,0A1.22,1.22,0,0,1,931.36,744.71Z"/><path class="cls-33" d="M771.84,727.37c-4.25-12.07.82-35.58,0.82-35.58s-0.91,25.28,3,34.15a1.9,1.9,0,0,1-1,2.48l-0.19.09A1.93,1.93,0,0,1,771.84,727.37Z"/><path class="cls-33" d="M759.86,715.85c-3.54-9.73.69-28.68,0.69-28.68s-0.76,20.38,2.46,27.53a1.51,1.51,0,0,1-.81,2l-0.15.07A1.62,1.62,0,0,1,759.86,715.85Z"/><path class="cls-33" d="M944.56,742.06c2.52-8.94-2.85-25.47-2.85-25.47s2.28,18.08-.15,24.7a1.33,1.33,0,0,0,.9,1.71l0.15,0A1.53,1.53,0,0,0,944.56,742.06Z"/><path class="cls-33" d="M948.33,738.75c-2.46-9.26,2.93-26.41,2.93-26.41s-2.33,18.74,0,25.6a1.41,1.41,0,0,1-.9,1.78l-0.15.05A1.49,1.49,0,0,1,948.33,738.75Z"/><path class="cls-33" d="M952.84,738c-3.68-9.38.71-27.67,0.71-27.67s-0.79,19.66,2.56,26.56a1.42,1.42,0,0,1-.84,1.93l-0.16.07A1.73,1.73,0,0,1,952.84,738Z"/><path class="cls-33" d="M938.76,741.16c-3.54-9.73.69-28.68,0.69-28.68s-0.76,20.38,2.46,27.53a1.51,1.51,0,0,1-.81,2l-0.15.07A1.62,1.62,0,0,1,938.76,741.16Z"/><path class="cls-33" d="M967.29,735.62c-3.19-12.39,3.9-35.37,3.9-35.37s-3.09,25.11,0,34.28a1.9,1.9,0,0,1-1.18,2.38l-0.19.07A1.93,1.93,0,0,1,967.29,735.62Z"/><path class="cls-33" d="M980.17,734c-3.06-9.85.59-29,.59-29s-0.65,20.63,2.12,27.87a1.64,1.64,0,0,1-.7,2l-0.13.07A1.34,1.34,0,0,1,980.17,734Z"/><path class="cls-33" d="M982.33,733.64c-2.23-8.47,2.9-24.07,2.9-24.07s-2.29,17.08-.13,23.36a1.27,1.27,0,0,1-.85,1.61l-0.14,0A1.4,1.4,0,0,1,982.33,733.64Z"/><path class="cls-33" d="M995.46,729.29c-2.46-9.26,2.93-26.41,2.93-26.41s-2.33,18.74,0,25.6a1.41,1.41,0,0,1-.9,1.78l-0.15.05A1.49,1.49,0,0,1,995.46,729.29Z"/><path class="cls-33" d="M744.43,728.47c-4.25-12.07.82-35.58,0.82-35.58s-0.91,25.28,3,34.15a1.9,1.9,0,0,1-1,2.48l-0.19.09A1.93,1.93,0,0,1,744.43,728.47Z"/><path class="cls-33" d="M752.77,723.37c2.24-10.8-3.31-31-3.31-31s2.59,22,.4,30a1.79,1.79,0,0,0,.91,2.1l0.14,0.06A1.38,1.38,0,0,0,752.77,723.37Z"/><path class="cls-33" d="M731.82,704.31c-4.25-12.07.82-35.58,0.82-35.58s-0.91,25.28,3,34.15a1.9,1.9,0,0,1-1,2.48l-0.19.09A1.93,1.93,0,0,1,731.82,704.31Z"/><path class="cls-33" d="M725.76,731.5c3.19-12.39-3.9-35.37-3.9-35.37s3.09,25.11,0,34.28a1.9,1.9,0,0,0,1.18,2.38l0.19,0.07A1.93,1.93,0,0,0,725.76,731.5Z"/><path class="cls-33" d="M739.62,697.57c-3.54-9.73.69-28.68,0.69-28.68s-0.76,20.38,2.46,27.53a1.51,1.51,0,0,1-.81,2l-0.15.07A1.62,1.62,0,0,1,739.62,697.57Z"/><path class="cls-33" d="M736,727.94c-1.78-10.2,5.7-28.11,5.7-28.11s-4.31,19.93-2.4,27.53a1.51,1.51,0,0,1-1.15,1.82l-0.16,0A1.62,1.62,0,0,1,736,727.94Z"/></g><g id="Schilf-2" data-name="Schilf"><path class="cls-30" d="M738,724.91l-1.61.44a67.36,67.36,0,0,1,0-35.55l1.61,0.44A65.69,65.69,0,0,0,738,724.91Z"/><rect class="cls-31" x="735.64" y="675.34" width="6.56" height="18.31" rx="3.28" ry="3.28" transform="translate(190.32 -160.23) rotate(14.19)"/><path class="cls-30" d="M735.13,712.38c1.22,7.19,1.48,9.76.29,10s-2.53-7-3.76-14.18-2.29-21.33-2.29-21.33S733.9,705.19,735.13,712.38Z"/><path class="cls-32" d="M740.67,676.06l1.23-2.62-0.27,2.88a0.51,0.51,0,1,1-1-.09A0.52,0.52,0,0,1,740.67,676.06Z"/></g><g id="Umbrella"><rect class="cls-5" x="91.18" y="667.41" width="4.62" height="39.94" rx="2.31" ry="2.31" transform="translate(245.38 10.5) rotate(20.39)"/><path class="cls-5" d="M129.91,683.94c-1.33,1.39-7.83,1-16.94-1.19a141.74,141.74,0,0,1-15.73-4.87,134.09,134.09,0,0,1-15.45-6.8c-7.8-4.08-12.56-7.84-13.25-9.95A32.74,32.74,0,0,1,129.91,683.94Z"/><path class="cls-15" d="M113.11,682.44c0,0.11-.09.21-0.14,0.31a141.74,141.74,0,0,1-15.73-4.87,134.09,134.09,0,0,1-15.45-6.8,1.38,1.38,0,0,1,.08-0.25c11.42-30.27,28.77-29,28.77-29S124.43,651.87,113.11,682.44Z"/></g><g id="Seal_Grey" data-name="Seal Grey"><path class="cls-34" d="M81.36,548.93h29.18a12.5,12.5,0,0,1,12.5,12.5v0a12.5,12.5,0,0,1-12.5,12.5H71.86a3,3,0,0,1-3-3v-9.5a12.5,12.5,0,0,1,12.5-12.5Z"/><path class="cls-34" d="M110.54,533.52h0A12.5,12.5,0,0,1,123,546v13.07a8.85,8.85,0,0,1-8.85,8.85H98a0,0,0,0,1,0,0V546A12.5,12.5,0,0,1,110.54,533.52Z"/><path class="cls-34" d="M54.73,562.21s6.21,1.2,10.55,1.56c4.49,0.37,5.57,4.55,4.82,6.15s-3.13,2-7.22.14S54.73,562.21,54.73,562.21Z"/><path class="cls-34" d="M57.38,580.14s5.86-2.44,10.07-3.65a4.93,4.93,0,0,0,3.15-7.28c-1.17-1.51-3.66-1.5-7.21,1.25S57.38,580.14,57.38,580.14Z"/><ellipse class="cls-34" cx="122.95" cy="566.76" rx="6.33" ry="3.6"/><ellipse class="cls-34" cx="111" cy="573.4" rx="6.33" ry="3.6" transform="translate(-333.99 195.13) rotate(-38.68)"/><circle class="cls-32" cx="105.98" cy="542.92" r="1.49"/><circle class="cls-32" cx="115.74" cy="542.92" r="1.49"/><path class="cls-32" d="M113.38,548.06a4.14,4.14,0,0,1-2.38,1.49,4,4,0,0,1-2.38-1.5c-0.62-.76.44-1.59,2.38-1.59S114,547.31,113.38,548.06Z"/><ellipse class="cls-35" cx="81.56" cy="552.22" rx="2.31" ry="1.88"/><circle class="cls-35" cx="76.17" cy="552.22" r="1.04"/><circle class="cls-35" cx="74.81" cy="557.26" r="1.04"/><ellipse class="cls-35" cx="78.18" cy="555.45" rx="1.54" ry="1.36"/><ellipse class="cls-35" cx="74" cy="554.19" rx="0.81" ry="0.67"/></g><g id="Seal_White" data-name="Seal White"><path class="cls-36" d="M50.41,506.68H79.59a12.5,12.5,0,0,1,12.5,12.5v0a12.5,12.5,0,0,1-12.5,12.5H40.91a3,3,0,0,1-3-3v-9.5A12.5,12.5,0,0,1,50.41,506.68Z"/><path class="cls-36" d="M79.59,491.27h0a12.5,12.5,0,0,1,12.5,12.5v13.07a8.85,8.85,0,0,1-8.85,8.85H67.09a0,0,0,0,1,0,0V503.77a12.5,12.5,0,0,1,12.5-12.5Z"/><path class="cls-36" d="M23.78,520s6.21,1.2,10.55,1.56c4.49,0.37,5.57,4.55,4.82,6.15s-3.13,2-7.22.14S23.78,520,23.78,520Z"/><path class="cls-36" d="M26.43,537.89s5.86-2.44,10.07-3.65A4.93,4.93,0,0,0,39.66,527c-1.17-1.51-3.66-1.5-7.21,1.25S26.43,537.89,26.43,537.89Z"/><ellipse class="cls-36" cx="92.01" cy="524.51" rx="6.33" ry="3.6"/><ellipse class="cls-36" cx="80.05" cy="531.15" rx="6.33" ry="3.6" transform="translate(-314.37 166.52) rotate(-38.68)"/><circle class="cls-32" cx="75.04" cy="500.67" r="1.49"/><circle class="cls-32" cx="84.79" cy="500.67" r="1.49"/><path class="cls-32" d="M82.43,505.8a4.14,4.14,0,0,1-2.38,1.49,4,4,0,0,1-2.38-1.5c-0.62-.76.44-1.59,2.38-1.59S83.05,505.06,82.43,505.8Z"/><ellipse class="cls-37" cx="50.61" cy="509.96" rx="2.31" ry="1.88"/><circle class="cls-37" cx="45.22" cy="509.96" r="1.04"/><circle class="cls-37" cx="43.86" cy="515" r="1.04"/><ellipse class="cls-37" cx="47.23" cy="513.2" rx="1.54" ry="1.36"/><ellipse class="cls-37" cx="43.05" cy="511.93" rx="0.81" ry="0.67"/></g><path id="Cloud" class="cls-38" d="M983.86,74.58a18.83,18.83,0,0,1,13.08,5.27,16.06,16.06,0,0,1,31.33,5c0,0.11,0,.21,0,0.32a13.92,13.92,0,0,1,16.87,13.46,13.57,13.57,0,0,1-12.14,13.7V113H984v-0.65l-0.39,0a18.79,18.79,0,0,1-18.77-18.9A19,19,0,0,1,983.86,74.58Z"/><path id="Cloud-2" data-name="Cloud" class="cls-39" d="M419.59,69.6a32,32,0,0,0-22.27,9A27.34,27.34,0,0,0,344,87c0,0.18,0,.36,0,0.54a23.52,23.52,0,0,0-5-.54,23.23,23.23,0,0,0-23.19,23.45A23.49,23.49,0,0,0,337,133.79V135h83v-1.1s0,0,.34,0a31.84,31.84,0,0,0,31.79-32.16C452.13,84,437.35,69.6,419.59,69.6Z"/><g id="Whale"><path class="cls-40" d="M1225.78,125.1c-8.49,25.78-58.55,14.63-77.77,1.93-26.56-18-48.92-33.65-74.52-33.65-40.4,0-73.14,28-73.14,62.45,0,0.73,0,1.16.05,2.16h199.31s31.8,2.1,40.86-30.72Z"/><path class="cls-40" d="M1268.62,108.39s-11.18,10.57-18,18.61c-7.11,8.33-16.87,4.53-19,.79s0.41-9.09,10-14.45S1268.62,108.39,1268.62,108.39Z"/><path class="cls-40" d="M1196.47,105.62s11.18,10.57,18,18.61c7.11,8.33,16.87,4.53,19,.79s-0.41-9.09-10-14.45S1196.47,105.62,1196.47,105.62Z"/><circle class="cls-23" cx="1045.43" cy="124.6" r="3.5"/></g><g id="Island"><rect class="cls-9" x="32.43" y="153" width="93.57" height="59" rx="20" ry="20"/><rect class="cls-10" x="32.43" y="153" width="93.57" height="59" rx="20" ry="20"/><rect class="cls-12" x="31.91" y="138.48" width="76.84" height="58.14" rx="20" ry="20"/><rect class="cls-13" x="31.91" y="138.48" width="76.84" height="58.14" rx="20" ry="20"/><rect class="cls-31" x="66.22" y="126.54" width="6.11" height="33.75"/><path class="cls-41" d="M93.15,99A11.19,11.19,0,0,0,80.53,87.8a11.57,11.57,0,0,0-21.62-2.45,12.41,12.41,0,0,0-11.75,21.76A8,8,0,0,0,54,121.49c0,0.18,0,.36,0,0.54a6.1,6.1,0,0,0,10.69,4l0.5,0.08a7.51,7.51,0,0,0,13.29-3,10.71,10.71,0,0,0,11.65-16.5A11.2,11.2,0,0,0,93.15,99Z"/></g><g id="Forest"><g id="Tree1"><rect class="cls-31" x="787.22" y="491.54" width="6.11" height="33.75"/><path class="cls-41" d="M814.15,464a11.19,11.19,0,0,0-12.62-11.16,11.57,11.57,0,0,0-21.62-2.45,12.41,12.41,0,0,0-11.75,21.76A8,8,0,0,0,775,486.49c0,0.18,0,.36,0,0.54a6.1,6.1,0,0,0,10.69,4l0.5,0.08a7.51,7.51,0,0,0,13.29-3,10.71,10.71,0,0,0,11.65-16.5A11.2,11.2,0,0,0,814.15,464Z"/></g><g id="Tree1-2" data-name="Tree1"><rect class="cls-31" x="874.22" y="344.54" width="6.11" height="33.75"/><path class="cls-41" d="M901.15,317a11.19,11.19,0,0,0-12.62-11.16,11.57,11.57,0,0,0-21.62-2.45,12.41,12.41,0,0,0-11.75,21.76A8,8,0,0,0,862,339.49c0,0.18,0,.36,0,0.54a6.1,6.1,0,0,0,10.69,4l0.5,0.08a7.51,7.51,0,0,0,13.29-3,10.71,10.71,0,0,0,11.65-16.5A11.2,11.2,0,0,0,901.15,317Z"/></g><g id="Tree2"><polygon class="cls-33" points="945.31 329.25 927.67 380 945.31 380 962.95 380 945.31 329.25"/><rect class="cls-31" x="942.25" y="380" width="6.11" height="33.75"/></g><g id="Tree1-3" data-name="Tree1"><rect class="cls-31" x="993.22" y="443.54" width="6.11" height="33.75"/><path class="cls-41" d="M1020.15,416a11.19,11.19,0,0,0-12.62-11.16,11.57,11.57,0,0,0-21.62-2.45,12.41,12.41,0,0,0-11.75,21.76A8,8,0,0,0,981,438.49c0,0.18,0,.36,0,0.54a6.1,6.1,0,0,0,10.69,4l0.5,0.08a7.51,7.51,0,0,0,13.29-3,10.71,10.71,0,0,0,11.65-16.5A11.2,11.2,0,0,0,1020.15,416Z"/></g><g id="Tree2-2" data-name="Tree2"><polygon class="cls-33" points="907.31 395.25 889.67 446 907.31 446 924.95 446 907.31 395.25"/><rect class="cls-31" x="904.25" y="446" width="6.11" height="33.75"/></g><g id="Tree2-3" data-name="Tree2"><polygon class="cls-33" points="833.31 376.25 815.67 427 833.31 427 850.95 427 833.31 376.25"/><rect class="cls-31" x="830.25" y="427" width="6.11" height="33.75"/></g></g><g id="Tree2-4" data-name="Tree2"><polygon class="cls-33" points="432.31 643.25 414.67 694 432.31 694 449.95 694 432.31 643.25"/><rect class="cls-31" x="429.25" y="694" width="6.11" height="33.75"/></g><g id="Monument"><polygon class="cls-42" points="964.5 585.48 964.88 579.8 984.69 571.56 1041.29 571.54 1053.24 578.26 1068.33 606 951.5 606 964.5 585.48"/><g id="Monument-2" data-name="Monument"><rect class="cls-43" x="997" y="526.75" width="7.67" height="29.83"/><rect class="cls-43" x="1017" y="526.36" width="7.67" height="30.23"/><rect class="cls-44" x="991.23" y="565.58" width="40" height="6"/><rect class="cls-45" x="997" y="526.75" width="2.5" height="29.83"/><rect class="cls-45" x="1017" y="527.14" width="2.5" height="29.44"/><rect class="cls-44" x="1000.83" y="556.58" width="20" height="4"/><path class="cls-43" d="M1020.83,522.83a10,10,0,0,1-16.44,7.65,10.21,10.21,0,0,0,1.94.19,10,10,0,0,0,6.43-17.65A10,10,0,0,1,1020.83,522.83Z"/><path class="cls-45" d="M1016.33,520.67a10,10,0,0,1-10,10,10.21,10.21,0,0,1-1.94-.19,10,10,0,0,1,6.44-17.65,9.43,9.43,0,0,1,1.93.19A9.91,9.91,0,0,1,1016.33,520.67Z"/><rect class="cls-44" x="995.83" y="560.58" width="30" height="5"/><circle class="cls-46" cx="1008.42" cy="517.43" r="2.44"/></g></g><g id="Stones"><path class="cls-47" d="M784.21,652.64c-1.08-.21-3-0.43-3.78-1.23-1.93-1.9,1.64-3.08,3-3.2a5.86,5.86,0,0,1,4.34,1.31c1.56,1.41,1.33,2.67-.65,3.1a6,6,0,0,1-4.49-.9c-0.25-.17-1.55-1.29-1.19-1.76s1.81-.16,2.25-0.09a5.51,5.51,0,0,1,2.13.78,1.3,1.3,0,0,1,.92.91q0.3,0.41-.3.38c-0.57.58-2,.35-2.75,0.25-2.93-.39,1.29-0.24,1.2,0l1-1a1.09,1.09,0,0,1-1.49-.08c-0.88-1.72-3.47-.2-2.59,1.51,1.13,2.19,6.09,2.76,6.12-.43s-5.13-4.19-7.21-2.7c-3,2.12.82,5.56,3.19,5.78,3,0.27,7.8-1.58,5.49-5.26-1.74-2.76-6.28-4.06-9.25-2.79-3.46,1.48-1.38,5.59.93,7.08,2.71,1.75,7.57,2.22,10-.4s-0.51-6.49-3-7.74c-3.29-1.68-8.45-1.27-10.71,2-2.92,4.2,2.67,6.75,6,7.38,1.89,0.36,2.69-2.53.8-2.89h0Z"/><path class="cls-47" d="M773.79,665.57c-1.54-.29-4.61-0.66-5.68-1.86-3.17-3.57,1.8-5.7,4.76-5.94a9.21,9.21,0,0,1,6.82,2.11c1,1,2,2.23,1.55,3.68s-1.37,1.66-2.81,2a9.37,9.37,0,0,1-7.08-1.38c-0.84-.58-2.78-2.65-1.58-3.82,0.58-.56,2.76-0.27,3.55-0.14,1.95,0.31,6.54,2.16,4.1,4.35-0.76.68-3.34,0.81-4.37,0.36-5-2.15,3.16-2.28,2.6-.41l1-1a2.19,2.19,0,0,1-3-.43c-0.88-1.72-3.47-.2-2.59,1.51,1.33,2.58,7.64,3.65,7.64-.27s-6.93-5.34-9.48-3.34c-3.56,2.8,1.49,6.83,4.31,7.14,3.88,0.43,10.32-1.79,7.4-6.63-2.27-3.77-8.76-5.52-12.71-3.75-4.4,2-1.32,7.22,1.52,9.07,3.65,2.38,10.48,3.16,13.71-.47s-1-8.59-4.19-10.21c-4.47-2.26-11.58-1.77-14.67,2.64-4,5.68,4,8.92,8.3,9.75,1.89,0.36,2.69-2.53.8-2.89h0Z"/><path class="cls-47" d="M772.06,659.11a21.46,21.46,0,0,1-2.66-.06v3c0.81,0,2,1.06,2.67,1.47a25.28,25.28,0,0,0,2.78,1.49c1.75,0.78,3.28-1.81,1.51-2.59a31.48,31.48,0,0,1-3.5-1.93,6.85,6.85,0,0,0-3.46-1.44c-2,0-1.9,2.84,0,3a21.46,21.46,0,0,0,2.66.06c1.92-.07,1.93-3.08,0-3h0Z"/><path class="cls-47" d="M773.49,676.69c-0.5-.1-2-0.27-2.36-0.76-0.42-.64.92-1,1.45-1.09a3.49,3.49,0,0,1,2.32.34,2.11,2.11,0,0,1,.93,1c0.15,0.34.69,0.11-.21,0.42a3.37,3.37,0,0,1-2.33-.06c-0.48-.19-0.74-0.62-1.17-0.82l-0.43.25,0.53-.1a4.48,4.48,0,0,1,1.27.18c0.28,0.1.93,0.64,1.12,0.67l0.36-.53-0.53.16c-0.49.05-1.43,0.44-1.55-.39l-0.15,1.16,0.16-.34-0.9.69c0.48-.18,1.14,0,1.32-0.64l1-1q-0.77,0-.4.18c-0.88-1.72-3.47-.2-2.59,1.51,1,1.88,5,2.09,5-.54,0-2.46-3.77-3.38-5.51-2.22-2.47,1.65.31,4.6,2.36,4.76,2.36,0.18,5.79-1.44,4-4.23a5.89,5.89,0,0,0-6.66-2.07c-2.76,1.1-1.41,4.38.49,5.6s5.44,1.55,7.18-.34-0.12-4.9-2.06-5.9c-2.39-1.24-6.13-.9-7.74,1.48-2.09,3.1,1.68,5.12,4.23,5.61,1.89,0.36,2.69-2.53.8-2.89h0Z"/><path class="cls-47" d="M760.76,669.39c-0.4-.08-2-0.27-2.19-0.7s0.87-.77,1.33-0.85a3.19,3.19,0,0,1,2.11.31,2.23,2.23,0,0,1,.83.85c0.13,0.22.72,0-.14,0.26a3.21,3.21,0,0,1-2.12-.06c-0.31-.12-0.84-0.67-1.05-0.73l-0.46.37,0.48-.09a5.06,5.06,0,0,1,1.16.16,11.56,11.56,0,0,1,1,.61l0.38-.65-0.5.15c-0.41,0-1.24.4-1.34-.3l-0.15,1.16,0.15-.32-0.9.69c0.64-.24.9,0,1.13-0.71l1-1q-0.73,0-.27.22c-0.88-1.72-3.47-.2-2.59,1.51s4.85,2,4.84-.55c0-2.38-3.61-3.29-5.31-2.16-2.4,1.6.25,4.48,2.26,4.63,2.29,0.17,5.55-1.42,3.88-4.11a5.62,5.62,0,0,0-6.35-2c-2.67,1.05-1.41,4.24.44,5.42s5.18,1.47,6.85-.34-0.08-4.71-1.95-5.68c-2.29-1.18-5.85-.86-7.38,1.43-2,3,1.56,4.92,4,5.39,1.89,0.36,2.69-2.53.8-2.89h0Z"/><path class="cls-47" d="M756.49,685.69c-0.5-.1-2-0.27-2.36-0.76-0.42-.64.92-1,1.45-1.09a3.49,3.49,0,0,1,2.32.34,2.11,2.11,0,0,1,.93,1c0.15,0.34.69,0.11-.21,0.42a3.37,3.37,0,0,1-2.33-.06c-0.48-.19-0.74-0.62-1.17-0.82l-0.43.25,0.53-.1a4.48,4.48,0,0,1,1.27.18c0.28,0.1.93,0.64,1.12,0.67l0.36-.53-0.53.16c-0.49.05-1.43,0.44-1.55-.39l-0.15,1.16,0.16-.34-0.9.69c0.48-.18,1.14,0,1.32-0.64l1-1q-0.77,0-.4.18c-0.88-1.72-3.47-.2-2.59,1.51,1,1.88,5,2.09,5-.54,0-2.46-3.77-3.38-5.51-2.22-2.47,1.65.31,4.6,2.36,4.76,2.36,0.18,5.79-1.44,4-4.23a5.89,5.89,0,0,0-6.66-2.07c-2.76,1.1-1.41,4.38.49,5.6s5.44,1.55,7.18-.34-0.12-4.9-2.06-5.9c-2.39-1.24-6.13-.9-7.74,1.48-2.09,3.1,1.68,5.12,4.23,5.61,1.89,0.36,2.69-2.53.8-2.89h0Z"/><path class="cls-47" d="M785.76,636.39c-0.4-.08-2-0.27-2.19-0.7s0.87-.77,1.33-0.85a3.19,3.19,0,0,1,2.11.31,2.23,2.23,0,0,1,.83.85c0.13,0.22.72,0-.14,0.26a3.21,3.21,0,0,1-2.12-.06c-0.31-.12-0.84-0.67-1.05-0.73l-0.46.37,0.48-.09a5.06,5.06,0,0,1,1.16.16,11.56,11.56,0,0,1,1,.61l0.38-.65-0.5.15c-0.41,0-1.24.4-1.34-.3l-0.15,1.16,0.15-.32-0.9.69c0.64-.24.9,0,1.13-0.71l1-1q-0.73,0-.27.22c-0.88-1.72-3.47-.2-2.59,1.51s4.85,2,4.84-.55c0-2.38-3.61-3.29-5.31-2.16-2.4,1.6.25,4.48,2.26,4.63,2.29,0.17,5.55-1.42,3.88-4.11a5.62,5.62,0,0,0-6.35-2c-2.67,1.05-1.41,4.24.44,5.42s5.18,1.47,6.85-.34-0.08-4.71-1.95-5.68c-2.29-1.18-5.85-.86-7.38,1.43-2,3,1.56,4.92,4,5.39,1.89,0.36,2.69-2.53.8-2.89h0Z"/><path class="cls-47" d="M770.79,733.57c-1.54-.29-4.61-0.66-5.68-1.86-3.17-3.57,1.8-5.7,4.76-5.94a9.21,9.21,0,0,1,6.82,2.11c1,1,2,2.23,1.55,3.68s-1.37,1.66-2.81,2a9.37,9.37,0,0,1-7.08-1.38c-0.84-.58-2.78-2.65-1.58-3.82,0.58-.56,2.76-0.27,3.55-0.14,1.95,0.31,6.54,2.16,4.1,4.35-0.76.68-3.34,0.81-4.37,0.36-5-2.15,3.16-2.28,2.6-.41l1-1a2.19,2.19,0,0,1-3-.43c-0.88-1.72-3.47-.2-2.59,1.51,1.33,2.58,7.64,3.65,7.64-.27s-6.93-5.34-9.48-3.34c-3.56,2.8,1.49,6.83,4.31,7.14,3.88,0.43,10.32-1.79,7.4-6.63-2.27-3.77-8.76-5.52-12.71-3.75-4.4,2-1.32,7.22,1.52,9.07,3.65,2.38,10.48,3.16,13.71-.47s-1-8.59-4.19-10.21c-4.47-2.26-11.58-1.77-14.67,2.64-4,5.68,4,8.92,8.3,9.75,1.89,0.36,2.69-2.53.8-2.89h0Z"/><path class="cls-47" d="M791.47,746.66c-0.84-.16-2.44-0.36-3.08-1-1.22-1.21,1.13-2,2-2.11a4.79,4.79,0,0,1,3.18.48c0.93,0.53,2.31,1.91.81,2.45a4.58,4.58,0,0,1-3.2-.1,3,3,0,0,1-1.67-1.19c-0.18-.45-0.28-0.3.48-0.4s3,0.29,3.3,1.18h0.28l-0.67.21c-0.78.22-2.26,0.5-2.44-.77l-0.15,1.16,0.2-.44-0.9.69a15,15,0,0,1,2.16-.32l1-1a0.7,0.7,0,0,1-1,.05c-0.88-1.72-3.47-.2-2.59,1.51,1,2,5.53,2.43,5.55-.48s-4.46-3.8-6.37-2.46c-2.71,1.9.56,5.08,2.78,5.27,2.67,0.23,6.81-1.51,4.78-4.75a7,7,0,0,0-8-2.43c-3.11,1.3-1.4,5,.71,6.35,2.34,1.51,6.53,1.9,8.6-.37s-0.31-5.69-2.52-6.83c-2.85-1.46-7.3-1.08-9.24,1.73-2.51,3.66,2.18,5.94,5.11,6.5,1.89,0.36,2.69-2.53.8-2.89h0Z"/><path class="cls-47" d="M867.79,762.57c-1.54-.29-4.61-0.66-5.68-1.86-3.17-3.57,1.8-5.7,4.76-5.94a9.21,9.21,0,0,1,6.82,2.11c1,1,2,2.23,1.55,3.68s-1.37,1.66-2.81,2a9.37,9.37,0,0,1-7.08-1.38c-0.84-.58-2.78-2.65-1.58-3.82,0.58-.56,2.76-0.27,3.55-0.14,1.95,0.31,6.54,2.16,4.1,4.35-0.76.68-3.34,0.81-4.37,0.36-5-2.15,3.16-2.28,2.6-.41l1-1a2.19,2.19,0,0,1-3-.43c-0.88-1.72-3.47-.2-2.59,1.51,1.33,2.58,7.64,3.65,7.64-.27s-6.93-5.34-9.48-3.34c-3.56,2.8,1.49,6.83,4.31,7.14,3.88,0.43,10.32-1.79,7.4-6.63-2.27-3.77-8.76-5.52-12.71-3.75-4.4,2-1.32,7.22,1.52,9.07,3.65,2.38,10.48,3.16,13.71-.47s-1-8.59-4.19-10.21c-4.47-2.26-11.58-1.77-14.67,2.64-4,5.68,4,8.92,8.3,9.75,1.89,0.36,2.69-2.53.8-2.89h0Z"/><path class="cls-47" d="M911.21,752.64c-1.08-.21-3-0.43-3.78-1.23-1.93-1.9,1.64-3.08,3-3.2a5.86,5.86,0,0,1,4.34,1.31c1.56,1.41,1.33,2.67-.65,3.1a6,6,0,0,1-4.49-.9c-0.25-.17-1.55-1.29-1.19-1.76s1.81-.16,2.25-0.09a5.51,5.51,0,0,1,2.13.78,1.3,1.3,0,0,1,.92.91q0.3,0.41-.3.38c-0.57.58-2,.35-2.75,0.25-2.93-.39,1.29-0.24,1.2,0l1-1a1.09,1.09,0,0,1-1.49-.08c-0.88-1.72-3.47-.2-2.59,1.51,1.13,2.19,6.09,2.76,6.12-.43s-5.13-4.19-7.21-2.7c-3,2.12.82,5.56,3.19,5.78,3,0.27,7.8-1.58,5.49-5.26-1.74-2.76-6.28-4.06-9.25-2.79-3.46,1.48-1.38,5.59.93,7.08,2.71,1.75,7.57,2.22,10-.4s-0.51-6.49-3-7.74c-3.29-1.68-8.45-1.27-10.71,2-2.92,4.2,2.67,6.75,6,7.38,1.89,0.36,2.69-2.53.8-2.89h0Z"/><path class="cls-47" d="M931.49,749.69c-0.5-.1-2-0.27-2.36-0.76-0.42-.64.92-1,1.45-1.09a3.49,3.49,0,0,1,2.32.34,2.11,2.11,0,0,1,.93,1c0.15,0.34.69,0.11-.21,0.42a3.37,3.37,0,0,1-2.33-.06c-0.48-.19-0.74-0.62-1.17-0.82l-0.43.25,0.53-.1a4.48,4.48,0,0,1,1.27.18c0.28,0.1.93,0.64,1.12,0.67l0.36-.53-0.53.16c-0.49.05-1.43,0.44-1.55-.39l-0.15,1.16,0.16-.34-0.9.69c0.48-.18,1.14,0,1.32-0.64l1-1q-0.77,0-.4.18c-0.88-1.72-3.47-.2-2.59,1.51,1,1.88,5,2.09,5-.54,0-2.46-3.77-3.38-5.51-2.22-2.47,1.65.31,4.6,2.36,4.76,2.36,0.18,5.79-1.44,4-4.23a5.89,5.89,0,0,0-6.66-2.07c-2.76,1.1-1.41,4.38.49,5.6s5.44,1.55,7.18-.34-0.12-4.9-2.06-5.9c-2.39-1.24-6.13-.9-7.74,1.48-2.09,3.1,1.68,5.12,4.23,5.61,1.89,0.36,2.69-2.53.8-2.89h0Z"/><path class="cls-47" d="M976.21,738.64c-1.08-.21-3-0.43-3.78-1.23-1.93-1.9,1.64-3.08,3-3.2a5.86,5.86,0,0,1,4.34,1.31c1.56,1.41,1.33,2.67-.65,3.1a6,6,0,0,1-4.49-.9c-0.25-.17-1.55-1.29-1.19-1.76s1.81-.16,2.25-0.09a5.51,5.51,0,0,1,2.13.78,1.3,1.3,0,0,1,.92.91q0.3,0.41-.3.38c-0.57.58-2,.35-2.75,0.25-2.93-.39,1.29-0.24,1.2,0l1-1a1.09,1.09,0,0,1-1.49-.08c-0.88-1.72-3.47-.2-2.59,1.51,1.13,2.19,6.09,2.76,6.12-.43s-5.13-4.19-7.21-2.7c-3,2.12.82,5.56,3.19,5.78,3,0.27,7.8-1.58,5.49-5.26-1.74-2.76-6.28-4.06-9.25-2.79-3.46,1.48-1.38,5.59.93,7.08,2.71,1.75,7.57,2.22,10-.4s-0.51-6.49-3-7.74c-3.29-1.68-8.45-1.27-10.71,2-2.92,4.2,2.67,6.75,6,7.38,1.89,0.36,2.69-2.53.8-2.89h0Z"/><path class="cls-47" d="M735.47,737.66c-0.84-.16-2.44-0.36-3.08-1-1.22-1.21,1.13-2,2-2.11a4.79,4.79,0,0,1,3.18.48c0.93,0.53,2.31,1.91.81,2.45a4.58,4.58,0,0,1-3.2-.1,3,3,0,0,1-1.67-1.19c-0.18-.45-0.28-0.3.48-0.4s3,0.29,3.3,1.18h0.28l-0.67.21c-0.78.22-2.26,0.5-2.44-.77l-0.15,1.16,0.2-.44-0.9.69a15,15,0,0,1,2.16-.32l1-1a0.7,0.7,0,0,1-1,.05c-0.88-1.72-3.47-.2-2.59,1.51,1,2,5.53,2.43,5.55-.48s-4.46-3.8-6.37-2.46c-2.71,1.9.56,5.08,2.78,5.27,2.67,0.23,6.81-1.51,4.78-4.75a7,7,0,0,0-8-2.43c-3.11,1.3-1.4,5,.71,6.35,2.34,1.51,6.53,1.9,8.6-.37s-0.31-5.69-2.52-6.83c-2.85-1.46-7.3-1.08-9.24,1.73-2.51,3.66,2.18,5.94,5.11,6.5,1.89,0.36,2.69-2.53.8-2.89h0Z"/><path class="cls-47" d="M752.49,742.69c-0.5-.1-2-0.27-2.36-0.76-0.42-.64.92-1,1.45-1.09a3.49,3.49,0,0,1,2.32.34,2.11,2.11,0,0,1,.93,1c0.15,0.34.69,0.11-.21,0.42a3.37,3.37,0,0,1-2.33-.06c-0.48-.19-0.74-0.62-1.17-0.82l-0.43.25,0.53-.1a4.48,4.48,0,0,1,1.27.18c0.28,0.1.93,0.64,1.12,0.67l0.36-.53-0.53.16c-0.49.05-1.43,0.44-1.55-.39l-0.15,1.16,0.16-.34-0.9.69c0.48-.18,1.14,0,1.32-0.64l1-1q-0.77,0-.4.18c-0.88-1.72-3.47-.2-2.59,1.51,1,1.88,5,2.09,5-.54,0-2.46-3.77-3.38-5.51-2.22-2.47,1.65.31,4.6,2.36,4.76,2.36,0.18,5.79-1.44,4-4.23a5.89,5.89,0,0,0-6.66-2.07c-2.76,1.1-1.41,4.38.49,5.6s5.44,1.55,7.18-.34-0.12-4.9-2.06-5.9c-2.39-1.24-6.13-.9-7.74,1.48-2.09,3.1,1.68,5.12,4.23,5.61,1.89,0.36,2.69-2.53.8-2.89h0Z"/><path class="cls-48" d="M1042,646s0-40.34-48.07-40.37c-46.41,0-46.41,40.37-46.41,40.37H1042Z"/></g><g id="House"><polygon class="cls-49" points="547.12 688.6 524.47 719.53 570.68 719.53 547.12 688.6"/><polygon class="cls-49" points="547.7 719.53 517.27 719.53 517.27 688.6 547.12 688.6 547.7 719.53"/><polygon class="cls-50" points="518.14 692.05 538.91 723.22 567.78 723.15 568 759 497 759 497 720.76 518.14 692.05"/><rect class="cls-51" x="540.78" y="719.42" width="29.91" height="3.94"/><rect class="cls-52" x="538.38" y="723.22" width="29.63" height="35.78"/><rect class="cls-53" x="497" y="753.51" width="41.38" height="5.49"/><rect class="cls-54" x="497" y="748.15" width="41.38" height="5.49"/><rect class="cls-55" x="497" y="742.73" width="41.38" height="5.49"/><rect class="cls-56" x="497" y="737.3" width="41.38" height="5.49"/><rect class="cls-57" x="497" y="731.95" width="41.38" height="5.49"/><rect class="cls-58" x="497" y="726.71" width="41.38" height="5.49"/><rect class="cls-59" x="497" y="721.39" width="41.38" height="5.49"/><rect class="cls-60" x="497" y="716.08" width="41.38" height="5.49"/><rect class="cls-61" x="501.39" y="710.89" width="31.8" height="5.49"/><rect class="cls-62" x="505.31" y="705.6" width="23.82" height="5.49"/><rect class="cls-63" x="508.75" y="699.69" width="17.16" height="6.05"/><rect class="cls-52" x="535.55" y="723.34" width="35.13" height="5.58" rx="2.79" ry="2.79"/><circle class="cls-64" cx="538.37" cy="726.13" r="2.82"/><rect class="cls-65" x="535.55" y="728.82" width="35.13" height="5.58" rx="2.79" ry="2.79"/><circle class="cls-64" cx="538.37" cy="731.61" r="2.82"/><rect class="cls-52" x="535.55" y="734.43" width="35.13" height="5.58" rx="2.79" ry="2.79"/><circle class="cls-64" cx="538.37" cy="737.22" r="2.82"/><rect class="cls-65" x="535.55" y="739.9" width="35.13" height="5.58" rx="2.79" ry="2.79"/><circle class="cls-64" cx="538.37" cy="742.69" r="2.82"/><rect class="cls-52" x="535.55" y="745.32" width="35.13" height="5.58" rx="2.79" ry="2.79"/><circle class="cls-64" cx="538.37" cy="748.11" r="2.82"/><rect class="cls-65" x="535.55" y="750.72" width="35.13" height="5.58" rx="2.79" ry="2.79"/><circle class="cls-64" cx="538.37" cy="753.51" r="2.82"/><circle class="cls-64" cx="498" cy="726.87" r="2.82"/><circle class="cls-64" cx="498" cy="753.64" r="2.82"/><circle class="cls-64" cx="498" cy="748.22" r="2.82"/><circle class="cls-64" cx="498" cy="742.8" r="2.82"/><circle class="cls-64" cx="498" cy="737.49" r="2.82"/><circle class="cls-64" cx="498" cy="732.2" r="2.82"/><polyline class="cls-66" points="542.69 721.95 537.33 726.13 517.24 699.78 513.03 694.32 517.27 688.6"/><polyline class="cls-67" points="491.98 721.95 497.34 726.13 517.32 699.91 517.32 699.91 517.27 688.6"/><rect class="cls-67" x="511.66" y="733.3" width="13.05" height="25.7"/><circle class="cls-67" cx="518.07" cy="720.04" r="6.41"/><rect class="cls-68" x="513.81" y="735.02" width="8.57" height="6.09"/><circle class="cls-68" cx="518.07" cy="720.04" r="4.32"/></g><g id="Mountain"><path class="cls-69" d="M688.33,485.35a24.57,24.57,0,0,0-17.08,6.88,21,21,0,0,0-40.9,6.49c0,0.14,0,.28,0,0.41a18,18,0,0,0-3.83-.41,18.24,18.24,0,0,0-18.28,18A17.74,17.74,0,0,0,624,534.58V535h64v-0.34a5.09,5.09,0,0,0,.59,0A24.67,24.67,0,0,0,688.33,485.35Z"/><path class="cls-70" d="M470.09,471.51L405,638H726L632.33,467.33s-48.51,6.9-56,7.33C543.06,476.61,470.09,471.51,470.09,471.51Z"/><polyline class="cls-5" points="458.68 500.71 483.38 486.45 505.33 517.58 521.33 489.33 552.67 528 572.67 494.06 591.33 510 603.33 486.45 624.11 507.22 642.58 486 632.33 467.33 576.33 474.67 470.09 471.51 458.68 500.71"/><path class="cls-71" d="M467.39,530.5a31.52,31.52,0,0,0-21.91,8.82A26.89,26.89,0,0,0,393,547.65c0,0.18,0,.35,0,0.53a23.12,23.12,0,1,0-8,45.47V594h82v-0.24a6.17,6.17,0,0,0,.74,0A31.64,31.64,0,0,0,467.39,530.5Z"/></g><g id="Flag"><path class="cls-15" d="M546,431.94c-11.5-4.19-23,13.17-34.49,9V423C523,433.14,534.5,421.77,546,431.94Z"/><path class="cls-34" d="M512.68,472.77l-2.33-.07V424.13a1.17,1.17,0,0,1,1.17-1.17h0a1.17,1.17,0,0,1,1.17,1.17v48.64Z"/></g><g id="Eagle"><path class="cls-72" d="M692.47,562c0,0.12,0,.24,0,0.36a11.26,11.26,0,0,1-1.52,5.35l-9.21,16a11.46,11.46,0,1,1-19.86-11.46l9.21-16A11.46,11.46,0,0,1,692.47,562Z"/><rect class="cls-5" x="680.3" y="537.39" width="11.75" height="21.97" rx="5.87" ry="5.87" transform="translate(170.02 -162.35) rotate(15.38)"/><path class="cls-5" d="M682.08,542a5.74,5.74,0,0,1,5.29-5.36h5a4.81,4.81,0,0,1,4.6,5h0a4.81,4.81,0,0,1-4.6,5h-5"/><path class="cls-73" d="M699.77,539.94a5.59,5.59,0,0,1,3.25,4.92c0,2.81.42,0.1-4-.91C694.29,542.86,699.77,539.94,699.77,539.94Z"/><rect class="cls-74" x="693.39" y="543.64" width="6.88" height="2.81" rx="1.4" ry="1.4"/><path class="cls-73" d="M702.31,545h-7.15a3,3,0,0,1-3.17-2.75v0a3,3,0,0,1,3.17-2.75h2.6a3.74,3.74,0,0,1,4,3.46Z"/><path class="cls-5" d="M692.47,562c0,0.12,0,.24,0,0.36a14.66,14.66,0,0,1-9.35.22c-6-1.63-10-5.83-9-9.37a4.55,4.55,0,0,1,.18-0.52A11.46,11.46,0,0,1,692.47,562Z"/><path class="cls-5" d="M651.48,580.7h11.83a0,0,0,0,1,0,0V588a0,0,0,0,1,0,0h-4.55a7.29,7.29,0,0,1-7.29-7.29v0A0,0,0,0,1,651.48,580.7Z" transform="translate(-177.35 861.5) rotate(-60)"/><path class="cls-75" d="M682.85,560.16a9.18,9.18,0,0,1-1.25,4.63l-5.93,10.27a14.74,14.74,0,0,1-.8,1.25,18.54,18.54,0,0,1-24.56,5.54l2.42-4.19,12.79-22.15A9.29,9.29,0,0,1,682.85,560.16Z"/><path class="cls-76" d="M682.85,560.16a9.18,9.18,0,0,1-1.25,4.63l-5.93,10.27a14.74,14.74,0,0,1-.8,1.25,18.56,18.56,0,0,1-21.24,1.87l-0.9-.52,12.79-22.15A9.29,9.29,0,0,1,682.85,560.16Z"/><circle class="cls-77" cx="689.99" cy="540.15" r="1.29"/><rect class="cls-73" x="672.42" y="588.52" width="2.5" height="13.66"/><circle class="cls-77" cx="673.63" cy="588.47" r="4.19"/><path class="cls-75" d="M667.15,556.47h0a0,0,0,0,1,0,0v13.64a4,4,0,0,1-4,4h0a0,0,0,0,1,0,0V560.47A4,4,0,0,1,667.15,556.47Z" transform="translate(371.76 -256.84) rotate(30)"/><path class="cls-75" d="M675,556.64h0a0,0,0,0,1,0,0v13.64a4,4,0,0,1-4,4h0a0,0,0,0,1,0,0V560.64A4,4,0,0,1,675,556.64Z" transform="translate(372.89 -260.74) rotate(30)"/><path class="cls-73" d="M684.25,602.23a31.2,31.2,0,0,1-7.27.88,65.89,65.89,0,0,1-9.14-.87,58,58,0,0,1,9.14-1A27.71,27.71,0,0,1,684.25,602.23Z"/><path class="cls-73" d="M672.71,602.05c0.21-.44,1.76.13,3.59,1a23.61,23.61,0,0,1,3.91,2.54,20.88,20.88,0,0,1-4.48-1.31C673.89,603.41,672.5,602.49,672.71,602.05Z"/></g></g><g id="Banner"><rect id="Back_Upper" data-name="Back Upper" class="cls-78" x="539.67" y="114.39" width="293.42" height="80.55"/><rect id="Back_Upper-2" data-name="Back Upper" class="cls-78" x="407.44" y="190.64" width="239.54" height="74.41"/><rect id="Back_Lower" data-name="Back Lower" class="cls-78" x="402.44" y="299.86" width="265.06" height="91.28"/><g id="Lower"><polygon class="cls-15" points="838.09 250.19 407.44 391.89 407.44 250.19 838.09 108.62 838.09 250.19"/><path class="cls-23" d="M499.76,236L526,227.38c7.39-2.43,11.47.88,11.47,9.31v75.55c0,8.43-4.08,14.42-11.47,16.85l-26.25,8.63V236Zm25,82.45a3.61,3.61,0,0,0,2.55-3.74V240.91c0-1.89-.89-2.61-2.55-2.07L510,243.7v79.62Z"/><path class="cls-23" d="M548.68,219.93l30.83-10.14v11l-20.64,6.79V261l19.88-6.54v11l-19.88,6.54v35.16l21.15-7v11l-31.34,10.31V219.93Z"/><path class="cls-23" d="M587.79,296.26V271L598,267.63V292c0,1.89.89,2.61,2.55,2.07l12.23-4a3.61,3.61,0,0,0,2.55-3.74V263.82a3,3,0,0,0-1.53-3l-20.9-10.41c-3.31-1.67-4.71-4.41-4.71-9.05V219.43c0-8.43,4.08-14.41,11.47-16.84l14-4.61c7.39-2.43,11.47.88,11.47,9.3v23.82l-10.19,3.35v-23c0-1.89-.89-2.61-2.55-2.07l-11.47,3.77a3.61,3.61,0,0,0-2.55,3.74v19.9a3,3,0,0,0,1.53,3l20.9,10.27c3.31,1.67,4.71,4.41,4.71,9.05v24.69c0,8.43-4.08,14.41-11.47,16.85l-14.78,4.86C591.87,308,587.79,304.69,587.79,296.26Z"/><path class="cls-23" d="M636.08,191.19l10.19-3.35V289.52l-10.19,3.35V191.19Z"/><path class="cls-23" d="M657.48,273.34V196.65c0-8.42,4.08-14.41,11.47-16.84l14.78-4.86c7.39-2.43,11.47.88,11.47,9.3v25.27L685,212.87v-24.4c0-1.89-.89-2.61-2.55-2.07l-12.23,4a3.61,3.61,0,0,0-2.55,3.74v74.95c0,1.89.89,2.61,2.55,2.07L685,266.32V235.53l-8.92,2.93v-11l19.11-6.29v52.29L685,276.77v-6.68l-5.1,8.94-11,3.6C661.56,285.07,657.48,281.76,657.48,273.34Z"/><path class="cls-23" d="M706.28,168.11l10.19-3.35,19.11,45.13V158.48l10.19-3.35V256.78l-10.19,3.35V236.61l-19.11-45.13v74.94l-10.19,3.35V168.11Z"/></g><g id="Upper"><polygon class="cls-15" points="838.09 95.38 407.44 237.08 407.44 95.38 838.09 -44.71 838.09 95.38"/><path class="cls-23" d="M484,86.63l10.19-3.32v90.48L514.8,167v11L484,188.15V86.63Z"/><path class="cls-23" d="M531,71.32l16.56-5.4,13.38,97-10.19,3.35L547.79,144l-17.07,5.6-2.93,24.14-10.19,3.35Zm15.42,62.16-7.14-53.85-7.13,58.53Z"/><path class="cls-23" d="M568.81,59L579,55.67l19.11,45V49.45l10.19-3.32V147.32l-10.19,3.35V127.24L579,82.29v74.65l-10.19,3.35V59Z"/><path class="cls-23" d="M619.77,42.39L646,33.84c7.39-2.41,11.47.88,11.47,9.26v75.07c0,8.37-4.08,14.33-11.47,16.76l-26.25,8.62V42.39Zm25,82a3.6,3.6,0,0,0,2.55-3.72V47.29c0-1.88-.89-2.6-2.55-2.06L630,50.05v79.17Z"/><path class="cls-23" d="M684.75,109.81V33.64c0-8.37,4.08-14.31,11.47-16.72l15-4.9c7.39-2.41,11.47.88,11.47,9.24V97.35c0,8.36-4.08,14.31-11.47,16.74l-15,4.94C688.83,121.45,684.75,118.18,684.75,109.81ZM710,103.55a3.59,3.59,0,0,0,2.55-3.72V25.45c0-1.87-.89-2.59-2.55-2.05l-12.49,4.07a3.59,3.59,0,0,0-2.55,3.72V105.6c0,1.87.89,2.59,2.55,2Z"/><path class="cls-23" d="M733.92,5.21l30.83-10V6.11l-20.64,6.73V46L764,39.47V50.41l-19.88,6.5v45.8l-10.19,3.35V5.21Z"/></g></g><g id="Annotations"><text class="cls-79" transform="translate(511.24 607.43)">HIGH MOUN<tspan x="78.77" y="0">T</tspan><tspan x="85.92" y="0">AIN </tspan><tspan x="-17.22" y="30">OF SELF-</tspan><tspan x="41.12" y="30">AW</tspan><tspan x="63.72" y="30">ARENESS</tspan></text><text class="cls-79" transform="translate(1061.17 703.3)">RIVER OF<tspan x="-15.19" y="30">DISTR</tspan><tspan x="25.24" y="30">AC</tspan><tspan x="43.76" y="30">TION</tspan></text><text class="cls-79" transform="translate(834.33 661.99)">L<tspan x="7.3" y="0">AKE OF </tspan><tspan x="-16.4" y="30">INSPIR</tspan><tspan x="30.02" y="30">A</tspan><tspan x="38.62" y="30">TION</tspan></text><text class="cls-79" transform="translate(728.31 335.82)">P<tspan x="8.75" y="0">A</tspan><tspan x="17.35" y="0">TH OF</tspan><tspan x="-1.54" y="30">R</tspan><tspan x="7.71" y="30">OUTINE</tspan></text><text class="cls-79" transform="translate(1190.83 467.58)">SEA OF <tspan x="-21.96" y="30">IM</tspan><tspan x="-4.41" y="30">A</tspan><tspan x="4.81" y="30">GIN</tspan><tspan x="28.59" y="30">A</tspan><tspan x="37.19" y="30">TION</tspan></text><text class="cls-79" transform="translate(828.6 505.7)">FOREST OF <tspan x="-8.76" y="30">TECHNOLO</tspan><tspan x="62.81" y="30">G</tspan><tspan x="72.09" y="30">Y</tspan></text><text class="cls-79" transform="translate(1010.43 278.72)">HIDDEN <tspan x="54.15" y="0">C</tspan><tspan x="63.45" y="0">A</tspan><tspan x="72.3" y="0">VE</tspan><tspan x="-8.21" y="30">OF KN</tspan><tspan x="31.26" y="30">O</tspan><tspan x="40.74" y="30">WLEDGE</tspan></text><text class="cls-79" transform="translate(44.45 238.08)">IS<tspan x="13.55" y="0">L</tspan><tspan x="20.85" y="0">AND OF</tspan><tspan x="10.24" y="30">T</tspan><tspan x="17.39" y="30">ALENT</tspan></text></g><g id="Girl"><path class="cls-80" d="M312.38,199.89c-5.85,37.64-28.66,61.06-60.51,60.46-31.85.59-54.66-22.82-60.51-60.46-2.67-18.39-.09-34,10.48-43.94,10.26-10.1,28.51-14.49,50-14.65,21.52,0.17,39.77,4.55,50,14.65C312.47,165.87,315,181.5,312.38,199.89Z"/><rect x="276" y="505.85" width="35" height="160.34"/><polygon class="cls-36" points="277.11 245.56 243.27 386.45 297.76 399.55 363.75 248.75 277.11 245.56"/><polygon class="cls-23" points="287.75 222.75 200 388 259.33 406.33 324.65 247.38 287.75 222.75"/><polygon class="cls-23" points="363.75 248.75 282 416 350.69 437.06 400.65 273.38 363.75 248.75"/><polygon class="cls-36" points="400.65 273.38 350.75 437 403.52 443.71 466.32 266.86 400.65 273.38"/><path class="cls-81" d="M314.75,196s-10,24.25,0,40c11.48,18.08-20.34,45-41.75,45s-39-11.33-39-32.75V194.57a39,39,0,0,1,66.54-27.41C307.56,174.17,314.75,185.29,314.75,196Z"/><rect class="cls-82" x="268.5" y="278.93" width="15" height="27.9"/><rect class="cls-81" x="338.35" y="300.89" width="30" height="131" rx="15" ry="15" transform="translate(-155.58 357.17) rotate(-45)"/><rect class="cls-81" x="393.56" y="338.15" width="30" height="87.34" rx="15" ry="15" transform="translate(389.66 -177.06) rotate(45)"/><path class="cls-83" d="M260.47,454.24A18.76,18.76,0,1,1,241.71,473a18.78,18.78,0,0,1,18.76-18.76m0-3A21.76,21.76,0,1,0,282.23,473a21.76,21.76,0,0,0-21.76-21.76h0Z"/><circle class="cls-83" cx="261.08" cy="473" r="5.79"/><path class="cls-81" d="M440.76,317.39h0a14.42,14.42,0,0,1,14.42,14.42v34.52a0,0,0,0,1,0,0H426.34a0,0,0,0,1,0,0V331.81A14.42,14.42,0,0,1,440.76,317.39Z" transform="translate(229.98 -174.58) rotate(30)"/><rect class="cls-84" x="420.51" y="320.89" width="11.4" height="29.99" rx="5.7" ry="5.7" transform="translate(74.24 -77.14) rotate(11.32)"/><path class="cls-85" d="M284.66,724c0,0.33,0,1,0,1H213s0-.66,0-1c0-16.76,16-30.36,35.83-30.36S284.66,707.25,284.66,724Z"/><rect class="cls-81" x="215.5" y="623.06" width="30" height="86.27"/><rect class="cls-23" x="213.13" y="676.16" width="35" height="14.99"/><rect class="cls-23" x="215.5" y="689.42" width="30" height="19.91"/><rect class="cls-36" x="217.67" y="676.16" width="3" height="14.99"/><rect class="cls-36" x="240.17" y="676.16" width="3" height="14.99"/><rect class="cls-36" x="225.17" y="676.16" width="3" height="14.99"/><rect class="cls-36" x="232.67" y="676.16" width="3" height="14.99"/><path class="cls-80" d="M339.66,724c0,0.33,0,1,0,1H268s0-.66,0-1c0-16.76,16-30.36,35.83-30.36S339.66,707.25,339.66,724Z"/><rect class="cls-81" x="270.5" y="623.06" width="30" height="86.27"/><rect class="cls-23" x="268.13" y="676.16" width="35" height="14.99"/><rect class="cls-23" x="270.5" y="689.42" width="30" height="19.91"/><rect class="cls-36" x="272.67" y="676.16" width="3" height="14.99"/><rect class="cls-36" x="280.17" y="676.16" width="3" height="14.99"/><rect class="cls-36" x="287.67" y="676.16" width="3" height="14.99"/><rect class="cls-32" x="268" y="509.98" width="35" height="156.21"/><rect class="cls-85" x="213" y="699.33" width="35" height="25.67"/><rect class="cls-80" x="268" y="699.33" width="35" height="25.67"/><rect x="221" y="509.98" width="35" height="156.21"/><rect class="cls-32" x="213" y="509.98" width="35" height="156.21"/><path class="cls-86" d="M325,354.83v111c0,1.62,0,3.22-.1,4.81-2.37,35.17-30.5,62.93-64.91,62.93s-62.51-27.76-64.88-62.93c-0.11-1.59-.11-3.2-0.11-4.81v-111c0-37.42,29.1-67.74,65.07-67.74a63.47,63.47,0,0,1,46,19.84A68.86,68.86,0,0,1,325,354.83Z"/><path class="cls-32" d="M325,471c-2.37,35-30.53,62.93-64.94,62.93S197.45,506,195.08,471H325Z"/><circle class="cls-80" cx="228.07" cy="220.08" r="6.43"/><circle class="cls-32" cx="297.3" cy="220.23" r="3.85"/><path class="cls-82" d="M305.63,236.22c-1.77,1.3,10.09,1.32,10.1-2.18,0-2.66-1.63-3.29-4.76-7.91C309.26,223.59,311.95,231.58,305.63,236.22Z"/><circle class="cls-84" cx="276" cy="230.14" r="8.88"/><path class="cls-87" d="M298.13,256.63s-26.5-8.75,4.54-3.46"/><path class="cls-32" d="M302.8,218.77c-0.09.3-3.85-3.31-10.36-1.59s-9.88-3.17-9.49-4.45c0.09-.3,3.85,3.31,10.36,1.59S303.19,217.49,302.8,218.77Z"/><path class="cls-80" d="M316.5,205.75c-19.5,1.56-38.19.31-57.69,1.87,12.94-18.62,8.69-38.37-11.31-56.37,19.5-1.56,36.75,8.31,56.25,6.75C319.25,170.25,329.75,186.5,316.5,205.75Z"/><path class="cls-80" d="M263.51,185.11c-6.12,11-12.06,21.18-9.55,27.44,2.37,5.92,9.46,11.54,9.46,11.54s-24.71-3.16-29.65-9.41c-5.54-6.18-4.93-15.59,1.19-26.55s9.93-20.71,9.55-27.44c0.23-6.79-3.73-10.55.82-11,3.34-.35,14.44,2.66,19.37,8.9C270.24,164.74,269.62,174.15,263.51,185.11Z"/><path class="cls-80" d="M253.69,218.4L216,211.59c-28.32-26.29,22.18-41.21,11.6-64.29l37.72,6.81C275.87,177.19,225.37,192.11,253.69,218.4Z"/><path class="cls-80" d="M208,298.51L164.3,287.1c-28.06-44.28,28.62-69.27,29-107.75,14.56,3.8,28.43,6.92,43,10.72C243.78,229,179.92,254.22,208,298.51Z"/><path d="M286,317.83c0.44,0.05.88,0.1,1.32,0.17H286v-0.17Z"/><path class="cls-34" d="M260,396v37.24A19.9,19.9,0,0,1,239.88,453H154.16A19.93,19.93,0,0,1,134,433.24V396H260Z"/><ellipse class="cls-88" cx="290.76" cy="314.54" rx="19.2" ry="14.53" transform="translate(-123.13 204.2) rotate(-32.32)"/><path class="cls-86" d="M309,305.74H340a0,0,0,0,1,0,0v49.93a0,0,0,0,1,0,0H309a25,25,0,0,1-25-25v0A25,25,0,0,1,309,305.74Z" transform="translate(325.23 -123.76) rotate(45)"/><path class="cls-80" d="M293.16,297.89l-43.62,28.23c-56.47-6-21.61-67.76-57.54-87.1,14.54-9.41,25.74-25.81,40.28-35.22C268.2,223.14,236.69,291.84,293.16,297.89Z"/><path class="cls-23" d="M296.14,474.77a22.27,22.27,0,0,1-6.38,15.63,21.94,21.94,0,0,1-15.4,6.6H129.71a22,22,0,0,1,0-44H274.36A21.78,21.78,0,0,1,296.14,474.77Z"/><path class="cls-83" d="M166.18,497h-9.12a38.16,38.16,0,0,1,0-43.77c0-.08.11-0.15,0.17-0.23h8.66l0.29,0.29A31,31,0,0,0,166.18,497Z"/><path class="cls-83" d="M229.5,496.54L229,497H220.7a37.8,37.8,0,0,1-.32-44h9.12A30.79,30.79,0,0,0,229.5,496.54Z"/><path class="cls-83" d="M275.08,464.66A10.34,10.34,0,1,1,264.74,475a10.35,10.35,0,0,1,10.34-10.34m0-3A13.34,13.34,0,1,0,288.42,475a13.34,13.34,0,0,0-13.34-13.34h0Z"/><path class="cls-32" d="M276,281.2v152A19.9,19.9,0,0,1,255.88,453h-20A19.9,19.9,0,0,0,256,433.24v-152A20.28,20.28,0,0,0,235.88,261h20A20.28,20.28,0,0,1,276,281.2Z"/><rect class="cls-23" x="202.67" y="131.92" width="34.33" height="149.01" rx="17.17" ry="17.17"/><path class="cls-89" d="M219.87,131.92h0a21,21,0,0,1,21,21v70a0,0,0,0,1,0,0H198.84a0,0,0,0,1,0,0V153a21,21,0,0,1,21-21Z"/><rect class="cls-32" x="214.58" y="151.6" width="10.5" height="89.21" rx="5.25" ry="5.25"/><path class="cls-90" d="M179,116.61l-0.41,0c-1.52-.18-2.26-1.33-3.1-2.37l0.08-41.84a1.38,1.38,0,0,1,.41-0.17c1.15-.24,2.56,1.39,3.66.92a1.33,1.33,0,0,0,.32-0.2l6.29,24.83L191,116.54c-2.36-.68-2.65-3.94-5.55-3.95C182.22,112.58,182.22,116.63,179,116.61Z"/><path class="cls-91" d="M159.63,112.79c-2.89,0-2.9,2.21-5.54,4.21h0L159,98l0-.16,6.5-24.68a0.34,0.34,0,0,0,.07,0c1.1,0.48,2.51-1.16,3.67-.91s2.17,2.38,3.34,2.38,2-1.64,2.94-2.2l-0.08,41.84a3.64,3.64,0,0,0-2.94-1.68c-3.08,0-3.23,3.67-6,4a3.67,3.67,0,0,1-.43.17C162.85,116.7,162.86,112.82,159.63,112.79Z"/><path class="cls-92" d="M169.28,72.18c1.12,0.24,2.17,2.38,3.34,2.39s2-1.64,2.94-2.2a1.38,1.38,0,0,1,.41-0.17c1.15-.24,2.56,1.39,3.66.92a1.33,1.33,0,0,0,.32-0.2l-4.36-17.2L173,45l-7,28h0l-0.23,0a0.25,0.25,0,0,1,0,0C166.83,73.55,168.13,71.94,169.28,72.18Z"/><path class="cls-93" d="M178.07,376.93L190.49,377l0,12.52c0,0.45,0,.89-0.05,1.33a16.59,16.59,0,0,1-.25,1.83v0c-1,5-4.07,8.65-7.77,8.63l-4.37,0Z"/><path class="cls-94" d="M165.95,401.25l-4.37,0c-4.45,0-8-5.34-8-11.88l0-12.52L166,376.88Z"/><polygon class="cls-95" points="178.02 401.3 165.95 401.25 166 376.88 178.07 376.93 178.02 401.3"/><polygon class="cls-96" points="190.49 376.98 178.07 376.93 178.12 354.09 190.53 354.14 190.49 376.98"/><polygon class="cls-97" points="178.07 376.93 166 376.88 166.04 354.04 178.12 354.09 178.07 376.93"/><polygon class="cls-98" points="166 376.88 153.58 376.83 153.62 353.98 166.04 354.04 166 376.88"/><polygon class="cls-99" points="190.53 354.14 178.12 354.09 178.13 346.98 190.55 347.03 190.53 354.14"/><polygon class="cls-100" points="178.12 354.09 166.04 354.04 166.06 346.93 178.13 346.98 178.12 354.09"/><polygon class="cls-101" points="166.04 354.04 153.62 353.98 153.64 346.88 166.06 346.93 166.04 354.04"/><path class="cls-102" d="M190.91,161.48L191,116.54c-2.36-.68-2.65-3.94-5.55-3.95-3.23,0-3.24,4-6.47,4l-0.41,0v2.83l-0.08,42.1L178.13,347,190.55,347Z"/><path class="cls-103" d="M178.49,161.52l0.08-42.1v-2.83c-1.52-.18-2.26-1.33-3.1-2.37a3.64,3.64,0,0,0-2.94-1.68c-3.08,0-3.23,3.67-6,4v2l-0.08,42.9-0.36,185.46L178.13,347Z"/><path class="cls-104" d="M166.42,161.47l0.08-42.9v-2l-0.43,0c-3.23,0-3.22-3.75-6.45-3.77-2.89,0-2.9,2.21-5.54,4.21h0L154,161.61,153.64,347l12.42,0Z"/><path class="cls-15" d="M134,318V435H110.91C101.72,435,94,426.36,94,415.32V347.68C94,331.12,105.45,318,119.23,318H134Z"/><path class="cls-34" d="M134,396v39H110.91C101.72,435,94,426.36,94,415.32V368.39Z"/><polygon class="cls-23" points="134 393.3 134 399.07 94 371.35 94 365.58 134 393.3"/><path class="cls-32" d="M318,347.68v67.64A19.61,19.61,0,0,1,298.14,435h-21A19.61,19.61,0,0,0,297,415.32V347.68A29.89,29.89,0,0,0,271.66,318h16.48A29.61,29.61,0,0,1,318,347.68Z"/><path class="cls-15" d="M265,318V435h23.13c9.21,0,16.87-8.64,16.87-19.68V347.68c0-16.56-11.39-29.68-25.2-29.68H265Z"/><path class="cls-34" d="M265,396v39h23.13c9.21,0,16.87-8.64,16.87-19.68V368.39Z"/><polygon class="cls-23" points="265 393.3 265 399.07 305 371.35 305 365.58 265 393.3"/><path class="cls-15" d="M260,281.2v152A19.9,19.9,0,0,1,239.88,453H154.16A19.93,19.93,0,0,1,134,433.24v-152A20.32,20.32,0,0,1,154.16,261h85.72A20.28,20.28,0,0,1,260,281.2Z"/><path class="cls-32" d="M245,391.17v23A9.82,9.82,0,0,1,235,424H222.63c5.52,0,10.37-4.2,10.37-9.84v-23c0-5.64-4.85-9.17-10.37-9.17H235C240.49,382,245,385.53,245,391.17Z"/><rect class="cls-83" x="159.41" y="381.87" width="75.22" height="42.5" rx="10" ry="10"/><rect class="cls-32" x="159.41" y="401.62" width="80.86" height="3"/><rect class="cls-23" x="204.79" y="412.01" width="19.78" height="5" transform="translate(629.19 199.83) rotate(90)"/><rect class="cls-23" x="172.09" y="412.01" width="19.78" height="5" transform="translate(596.49 232.53) rotate(90)"/><path class="cls-32" d="M245,290.5v64.62c0,5.49-4.51,10.88-10,10.88H222.63c5.52,0,10.37-5.39,10.37-10.88V290.5c0-5.49-4.85-9.5-10.37-9.5H235C240.49,281,245,285,245,290.5Z"/><rect class="cls-83" x="159.41" y="280.93" width="75.22" height="85" rx="10" ry="10"/><rect class="cls-32" x="159.41" y="323.4" width="81.5" height="3"/><rect class="cls-23" x="162.18" y="343.7" width="39.6" height="5" transform="translate(528.18 164.22) rotate(90)"/><rect class="cls-23" x="192.38" y="343.7" width="39.6" height="5" transform="translate(558.38 134.02) rotate(90)"/><path class="cls-84" d="M315.73,233.88a11.26,11.26,0,0,1-1.26,4.37c-1.47,2.51-7.3-1.65-6.83-1.8C308.17,237.69,314.48,237.42,315.73,233.88Z"/><rect class="cls-36" x="295.19" y="676.16" width="3" height="14.99"/><circle class="cls-105" cx="275.08" cy="475" r="20.74"/><circle class="cls-83" cx="275.08" cy="475" r="4.75"/></g></g></svg>