<svg id="Layer_2" data-name="Layer 2" xmlns="http://www.w3.org/2000/svg" xmlns:xlink="http://www.w3.org/1999/xlink" viewBox="0 0 1000 800"><defs><style>.cls-1{fill:#ffcc4b;}.cls-2{opacity:0.3;fill:url(#linear-gradient);}.cls-3{fill:#fde2ba;}.cls-4{fill:#fde7cb;}.cls-5{fill:#544e47;}.cls-6{fill:#ea869c;}.cls-7{fill:#f99ea6;}.cls-8{fill:#f88b99;}.cls-9{fill:#846f65;}.cls-10{fill:#a19181;}.cls-11{fill:#b4afab;}.cls-12{fill:#4a3a27;}.cls-13{fill:#6d5a4b;}.cls-14{fill:#7d7570;}.cls-15{fill:#ea8a28;}.cls-16{fill:#faa443;}.cls-17{fill:#fab457;}</style><linearGradient id="linear-gradient" x1="-47" y1="578.39" x2="805.5" y2="578.39" gradientUnits="userSpaceOnUse"><stop offset="0" stop-opacity="0"/><stop offset="1"/></linearGradient></defs><title>Pencil</title><rect class="cls-1" width="1000" height="800"/><ellipse class="cls-2" cx="379.25" cy="578.39" rx="426.25" ry="29.95"/><path class="cls-3" d="M678.86,526.86c0.2-.36.41-0.68,0.63-1,2.48-3.66,5.52-4.4,8.5-5.51l71.55,40.91a5.23,5.23,0,0,1-.31,1.21c-1.24,3.13-6,5.11-6.81,8.33a4.42,4.42,0,0,0-.11,1l-51.53-8.31-39-6.28c4.55-5.29,10.54-2.86,14.7-10.14C681.14,538.94,674.22,535,678.86,526.86Z"/><path class="cls-4" d="M713.63,482.08c4.16-7.26-1.7-10.63,1.23-17.76v0L740,494.93l-0.05.13,32.85,40.31-0.16.15c-2.39,2.3-1.65,7.44-3.73,10.1s-7.19,3.15-8.88,6.1c-1.47,2.58,0,6.54-.44,9.54L688,520.35a12.18,12.18,0,0,0,7.08-5.78c4.43-7.74-1.67-11.7,1.79-19.1,0.17-.35.36-0.73,0.57-1.1C702.08,486.25,709,490.19,713.63,482.08Z"/><path class="cls-5" d="M768.86,545.63c-2,2.6-7.19,3.15-8.88,6.1-1.47,2.58,0,6.54-.44,9.54a5.23,5.23,0,0,1-.31,1.21c-1.24,3.13-6,5.11-6.81,8.33a4.42,4.42,0,0,0-.11,1l35.7,5.75,22.38,3.39-37.57-45.49h0l-0.05-.07-0.16.15C770.2,537.82,770.93,543,768.86,545.63Z"/><path class="cls-6" d="M234.29,271.29l-17.87,31.25L195,290.3a25.88,25.88,0,0,1-2.2-1.42,22.92,22.92,0,0,1-2.78-2.4l0,0a23.34,23.34,0,0,1-3.66-28l6.29-11Z"/><path class="cls-7" d="M210,217.08l6.29-11a23.34,23.34,0,0,1,31.84-8.67l21.41,12.24-17.87,31.25Z"/><rect class="cls-8" x="204.64" y="220.18" width="35" height="48" transform="translate(-100.1 315.82) rotate(-60.24)"/><rect class="cls-9" x="226.88" y="275.58" width="36" height="45" transform="translate(-135.44 362.71) rotate(-60.24)"/><rect class="cls-10" x="245.01" y="244.77" width="35" height="45" transform="translate(-99.81 362.48) rotate(-60.24)"/><rect class="cls-11" x="262.13" y="213.95" width="36" height="45" transform="translate(-64.19 362.26) rotate(-60.24)"/><rect class="cls-12" x="252.49" y="305.73" width="36" height="14" transform="translate(-135.25 392.31) rotate(-60.24)"/><rect class="cls-13" x="270.62" y="274.91" width="35" height="14" transform="translate(-99.63 392.09) rotate(-60.24)"/><rect class="cls-14" x="287.74" y="244.09" width="36" height="14" transform="translate(-64 391.87) rotate(-60.24)"/><path class="cls-15" d="M584.94,513.27l76.84,43.94c4.55-5.29,10.54-2.86,14.7-10.14,4.65-8.13-2.27-12.08,2.37-20.21,0.2-.36.41-0.68,0.63-1l-4.84-2.77-72-41.17L285.51,300.58l-17.87,31.25Z"/><path class="cls-16" d="M602.65,481.92l72,41.17,4.84,2.77c2.48-3.66,5.52-4.4,8.5-5.51a12.18,12.18,0,0,0,7.08-5.78c4.43-7.74-1.67-11.7,1.79-19.1l-3.48-2L620,451.54,302.88,270.19l-17.37,30.38Z"/><path class="cls-17" d="M620,451.54l73.35,41.94,3.48,2c0.17-.35.36-0.73,0.57-1.1,4.65-8.13,11.54-4.18,16.2-12.29,4.16-7.26-1.7-10.63,1.23-17.76v0l-76.8-43.92L320.75,238.94l-17.87,31.25Z"/></svg>