<svg id="Layer_2" data-name="Layer 2" xmlns="http://www.w3.org/2000/svg" viewBox="0 0 1000 800"><defs><style>.cls-1{fill:#97b4bf;}.cls-2,.cls-5{fill:#2b2929;}.cls-3,.cls-6,.cls-7{fill:#fff;}.cls-4{fill:#fcfcfc;}.cls-5{opacity:0.5;}.cls-6,.cls-7,.cls-8{stroke:#2b2929;stroke-miterlimit:10;}.cls-6,.cls-7{stroke-width:19px;}.cls-7{stroke-linecap:round;}.cls-8{fill:#dba2a2;stroke-width:16px;}</style></defs><title>UX</title><rect class="cls-1" width="1000" height="800"/><path class="cls-2" d="M815.69,400.5c0,18.22-11.51,35.2-14.55,52.55-3.12,17.84,1.84,37.72-4.22,54.36-6.17,16.94-22.8,29-31.71,44.36s-11.15,35.94-22.63,49.61-31.25,19.35-45,30.86S675,662.19,659.46,671.18s-35.85,7.49-52.79,13.66c-16.64,6.06-31.38,20.34-49.22,23.47-17.35,3-36.06-5.3-54.27-5.3s-36.93,8.34-54.27,5.3c-17.84-3.12-32.58-17.41-49.22-23.47-16.94-6.17-37.39-4.75-52.79-13.66s-24.5-27.46-38.17-38.94-33.44-17.16-45-30.86-13.64-34.07-22.63-49.61-25.55-27.42-31.71-44.36c-6.06-16.64-1.1-36.52-4.22-54.36-3-17.35-14.55-34.33-14.55-52.55S202.2,365.3,205.24,348c3.12-17.84-1.84-37.72,4.22-54.36,6.17-16.94,22.8-29,31.71-44.36s11.15-35.94,22.63-49.61,31.25-19.35,45-30.86,22.63-29.95,38.17-38.94,35.85-7.49,52.79-13.66c16.64-6.06,31.38-20.34,49.22-23.47,17.35-3,36.06,5.3,54.27,5.3s36.93-8.34,54.27-5.3c17.84,3.12,32.58,17.41,49.22,23.47,16.94,6.17,37.39,4.75,52.79,13.66s24.5,27.46,38.17,38.94,33.44,17.16,45,30.86,13.64,34.07,22.63,49.61,25.55,27.42,31.71,44.36c6.06,16.64,1.1,36.52,4.22,54.36C804.18,365.3,815.69,382.28,815.69,400.5Z" transform="translate(0 -4)"/><circle class="cls-3" cx="503.19" cy="396.5" r="266.5"/><circle class="cls-2" cx="503.19" cy="396.5" r="246"/><circle class="cls-4" cx="503.19" cy="396.5" r="225.5"/><circle class="cls-2" cx="503.19" cy="396.5" r="174.25"/><circle class="cls-4" cx="503.19" cy="396.5" r="153.75"/><circle class="cls-2" cx="503.19" cy="396.5" r="133.25"/><polygon class="cls-5" points="703.06 291.27 157.28 307.43 175.19 322.09 265.28 333.66 349.44 336.51 479.61 324.74 550.34 315.14 615.94 307 673.34 307 731.76 305.11 749.19 307.27 703.06 291.27"/><path class="cls-6" d="M838.86,487.7c-223.78-50.14-447.57,54.59-671.35,4.44V324c223.78,50.14,447.57-54.59,671.35-4.44V487.7Z" transform="translate(0 -4)"/><path class="cls-7" d="M228,377.73c-17.67-2-35.33-4.7-53-8.39" transform="translate(0 -4)"/><path class="cls-7" d="M174.5,406.29a587,587,0,0,0,85.08,12.05" transform="translate(0 -4)"/><path class="cls-7" d="M175,458.34q21.5,4.49,43,7.2" transform="translate(0 -4)"/><path class="cls-7" d="M775,359.91c18.33,1.92,36.67,4.69,55,8.47" transform="translate(0 -4)"/><path class="cls-7" d="M747,398.6a585.89,585.89,0,0,1,83,10.77" transform="translate(0 -4)"/><path class="cls-7" d="M794,446.21c14.67,2,29.33,4.62,44,7.88" transform="translate(0 -4)"/><path class="cls-2" d="M335.76,371.07v99.16q-7.82.28-15.64,0.43V371.5Q327.94,371.35,335.76,371.07Z" transform="translate(0 -4)"/><path class="cls-2" d="M553,349.5v66.15a22.52,22.52,0,0,0,1.94,9.61,20,20,0,0,0,5,6.82,18.66,18.66,0,0,0,7,3.82,20,20,0,0,0,7.89.73,27.41,27.41,0,0,0,8.32-2.3,25.91,25.91,0,0,0,13-12.91,24.17,24.17,0,0,0,2.08-10.24V344.74q7.82-.74,15.64-1.4v65.87A35.46,35.46,0,0,1,610.45,425a40.12,40.12,0,0,1-9,12.15,45.88,45.88,0,0,1-12.56,8.16A46.53,46.53,0,0,1,575,449.1a38.92,38.92,0,0,1-13.42-.91,32.55,32.55,0,0,1-12-5.6,30.38,30.38,0,0,1-8.68-10.4,32.51,32.51,0,0,1-3.37-15.31V351.31Q545.3,350.39,553,349.5Z" transform="translate(0 -4)"/><path class="cls-2" d="M668.85,389.41q7.89,11.9,15.64,23.93t16.21,25.07q-8.68,0-17.36.21-11.48-17.9-23-35.51-11.62,18.69-23.25,37.62-8.68.58-17.36,1.28,16-26.18,32-52-7.61-11.5-15.86-23.78t-15.86-23.44q8.54-.68,17.08-1.26,11.55,17.31,23.1,34.85,11.55-18.61,23.1-37,8.68-.19,17.36-0.21Q684.78,364,668.85,389.41Z" transform="translate(0 -4)"/><path class="cls-8" d="M486.35,368.67h0c-10.57-9.29-27.72-7.25-38.29,4.5l-6,6.71-6-5.38c-10.57-9.41-27.72-7.7-38.29,3.78h0c-10.57,11.48-14.67,28.94-4.1,38.65Q417.77,437,442,456.42l0.06-.07,0.06,0.05q22.14-24.58,44.27-49.44C496.93,395.11,496.93,378,486.35,368.67Z" transform="translate(0 -4)"/><polygon class="cls-5" points="309.63 512.5 849.1 496.18 816.84 480.55 737.57 472.35 634.39 475.08 540.09 482.6 468.34 486.7 328.94 501.05 305.7 501.73 309.63 512.5"/></svg>